<?xml version="1.0" encoding="utf-8"?>
<!-- Generator: Adobe Illustrator 27.5.0, SVG Export Plug-In . SVG Version: 6.00 Build 0)  -->
<svg version="1.1" id="Layer_1" xmlns="http://www.w3.org/2000/svg" xmlns:xlink="http://www.w3.org/1999/xlink" x="0px" y="0px"
	 viewBox="0 0 432 288" style="enable-background:new 0 0 432 288;" xml:space="preserve">
<g>
	<rect style="fill:#00235E;" width="432" height="288"/>
	<g>
		<g>
			<path style="fill:#FF5E95;" d="M325.527,263.369c-0.995-0.394-1.615,0.43-2.861,0.888c-1.828,0.673-2.034,1.845-1.329,2.408
				c0.705,0.562,1.77-0.048,2.63,0.339c0.003,0.001,0.005,0.002,0.008,0.004c0.003,0.001,0.005,0.002,0.008,0.003
				c0.874,0.353,1.17,1.545,2.063,1.665c0.893,0.12,1.598-0.839,0.819-2.625C326.334,264.833,326.5,263.815,325.527,263.369z"/>
			<path style="fill:#FF5E95;" d="M323.464,261.626c0.225,0.98-0.105,1.892-0.737,2.037c-0.632,0.145-1.326-0.533-1.551-1.513
				c-0.225-0.98,0.105-1.892,0.737-2.037C322.545,259.969,323.24,260.646,323.464,261.626z"/>
			<path style="fill:#FF5E95;" d="M328.212,263.654c-0.863,0.516-1.294,1.385-0.961,1.942c0.333,0.557,1.302,0.59,2.165,0.074
				c0.863-0.516,1.294-1.385,0.962-1.942C330.045,263.171,329.076,263.138,328.212,263.654z"/>
			<path style="fill:#FF5E95;" d="M326.387,260.649c-0.239,1.033-0.973,1.746-1.639,1.592c-0.666-0.154-1.013-1.117-0.773-2.15
				c0.239-1.033,0.973-1.746,1.639-1.592C326.28,258.653,326.626,259.616,326.387,260.649z"/>
			<path style="fill:#FF5E95;" d="M326.897,260.867c-0.581,0.887-0.588,1.91-0.016,2.285c0.572,0.375,1.507-0.041,2.088-0.928
				c0.581-0.887,0.588-1.91,0.016-2.285C328.413,259.564,327.478,259.98,326.897,260.867z"/>
		</g>
		<g>
			<path style="fill:#FF5E95;" d="M397.966,63.172c1.517,0.717,2.572-0.509,4.569-1.102c2.93-0.869,3.371-2.683,2.324-3.635
				c-1.046-0.951-2.775-0.103-4.082-0.796c-0.004-0.002-0.008-0.004-0.012-0.006c-0.004-0.002-0.008-0.004-0.012-0.006
				c-1.333-0.641-1.675-2.536-3.062-2.815c-1.387-0.278-2.586,1.153-1.548,4.027C396.851,60.799,396.489,62.375,397.966,63.172z"/>
			<path style="fill:#FF5E95;" d="M401.019,66.108c-0.253-1.557,0.356-2.952,1.36-3.115c1.004-0.163,2.023,0.967,2.276,2.525
				c0.253,1.557-0.356,2.952-1.36,3.115C402.291,68.796,401.272,67.665,401.019,66.108z"/>
			<path style="fill:#FF5E95;" d="M393.791,62.455c1.404-0.72,2.165-2.038,1.701-2.942c-0.464-0.905-1.979-1.055-3.382-0.335
				c-1.404,0.72-2.165,2.038-1.701,2.943C390.873,63.026,392.388,63.176,393.791,62.455z"/>
			<path style="fill:#FF5E95;" d="M396.345,67.343c0.478-1.593,1.699-2.635,2.726-2.327c1.027,0.309,1.472,1.85,0.994,3.444
				c-0.479,1.593-1.699,2.635-2.726,2.327C396.312,70.478,395.867,68.936,396.345,67.343z"/>
			<path style="fill:#FF5E95;" d="M395.569,66.951c0.999-1.33,1.114-2.931,0.256-3.575c-0.858-0.644-2.363-0.088-3.362,1.243
				c-0.999,1.33-1.114,2.931-0.256,3.575C393.065,68.837,394.57,68.281,395.569,66.951z"/>
		</g>
		<g>
			<path style="fill:#FF5E95;" d="M186.983,235.352c-1.773-2.431-4.485-1.405-8.136-2.186c-5.357-1.146-7.607,1.331-6.776,3.726
				c0.831,2.395,4.279,2.543,5.742,4.755c0.005,0.007,0.009,0.014,0.014,0.021c0.005,0.007,0.01,0.013,0.014,0.02
				c1.548,2.153,0.46,5.429,2.404,7.057c1.943,1.628,5.058,0.405,5.891-5.01C186.702,240.044,188.625,237.873,186.983,235.352z"/>
			<path style="fill:#FF5E95;" d="M184.698,228.112c-0.938,2.668-3.093,4.34-4.813,3.735c-1.72-0.605-2.353-3.258-1.415-5.926
				c0.938-2.668,3.093-4.34,4.813-3.735C185.003,222.791,185.636,225.444,184.698,228.112z"/>
			<path style="fill:#FF5E95;" d="M192.939,240.062c-2.827-0.071-5.156,1.349-5.202,3.171c-0.046,1.822,2.209,3.357,5.036,3.429
				c2.827,0.071,5.156-1.349,5.202-3.171C198.02,241.668,195.766,240.133,192.939,240.062z"/>
			<path style="fill:#FF5E95;" d="M193.113,230.179c-2.12,2.097-4.935,2.689-6.287,1.323c-1.352-1.367-0.729-4.175,1.391-6.273
				c2.12-2.097,4.935-2.689,6.287-1.322C195.855,225.273,195.233,228.082,193.113,230.179z"/>
			<path style="fill:#FF5E95;" d="M193.997,231.462c-2.714,1.236-4.268,3.657-3.471,5.407c0.797,1.75,3.643,2.166,6.357,0.929
				c2.714-1.236,4.268-3.657,3.471-5.407C199.557,230.641,196.711,230.225,193.997,231.462z"/>
		</g>
		<g>
			<path style="fill:#FF5E95;" d="M25.227,70.768c-1.175-3.089-4.347-2.787-7.99-4.672c-5.346-2.765-8.447-0.791-8.26,1.988
				s3.8,3.933,4.709,6.701c0.003,0.009,0.006,0.017,0.008,0.026c0.003,0.008,0.006,0.017,0.01,0.025
				c1.017,2.73-1.083,5.887,0.505,8.175c1.589,2.287,5.244,1.893,7.693-3.605C23.572,75.659,26.238,73.915,25.227,70.768z"/>
			<path style="fill:#FF5E95;" d="M24.9,62.432c-1.767,2.556-4.534,3.705-6.182,2.566c-1.648-1.139-1.551-4.134,0.215-6.69
				c1.767-2.556,4.534-3.705,6.182-2.566C26.763,56.881,26.667,59.876,24.9,62.432z"/>
			<path style="fill:#FF5E95;" d="M30.177,77.483c-2.976-0.893-5.855-0.063-6.431,1.856c-0.576,1.918,1.369,4.198,4.345,5.091
				c2.976,0.893,5.855,0.063,6.431-1.856C35.098,80.655,33.152,78.376,30.177,77.483z"/>
			<path style="fill:#FF5E95;" d="M33.221,67.058c-2.854,1.609-6.009,1.422-7.046-0.418c-1.038-1.84,0.435-4.636,3.289-6.245
				c2.854-1.609,6.009-1.422,7.046,0.418C37.548,62.653,36.075,65.449,33.221,67.058z"/>
			<path style="fill:#FF5E95;" d="M33.787,68.674c-3.234,0.525-5.582,2.641-5.243,4.726c0.339,2.085,3.235,3.349,6.469,2.824
				c3.234-0.525,5.582-2.641,5.243-4.726C39.918,69.413,37.021,68.149,33.787,68.674z"/>
		</g>
		<g>
			<path style="fill:#FF5E95;" d="M74.158,262.749c-0.401-1.189-1.609-1.12-2.964-1.888c-1.989-1.126-3.194-0.422-3.163,0.635
				c0.031,1.057,1.385,1.547,1.69,2.611c0.001,0.003,0.002,0.007,0.003,0.01s0.002,0.007,0.003,0.01
				c0.347,1.051-0.496,2.218,0.074,3.109c0.57,0.891,1.963,0.794,2.971-1.257C73.46,264.581,74.496,263.957,74.158,262.749z"/>
			<path style="fill:#FF5E95;" d="M74.154,259.581c-0.707,0.944-1.774,1.34-2.383,0.884c-0.609-0.456-0.529-1.591,0.178-2.535
				c0.707-0.944,1.774-1.34,2.383-0.884C74.941,257.502,74.862,258.637,74.154,259.581z"/>
			<path style="fill:#FF5E95;" d="M75.939,265.368c-1.116-0.382-2.221-0.108-2.467,0.612c-0.246,0.72,0.459,1.612,1.575,1.994
				c1.116,0.382,2.221,0.108,2.467-0.611S77.056,265.75,75.939,265.368z"/>
			<path style="fill:#FF5E95;" d="M77.245,261.457c-1.106,0.569-2.3,0.453-2.668-0.26c-0.367-0.713,0.232-1.753,1.338-2.322
				c1.106-0.57,2.301-0.453,2.668,0.26C78.95,259.847,78.351,260.887,77.245,261.457z"/>
			<path style="fill:#FF5E95;" d="M77.436,262.078c-1.235,0.153-2.156,0.922-2.058,1.718c0.098,0.796,1.179,1.318,2.414,1.165
				c1.235-0.153,2.156-0.922,2.058-1.718C79.752,262.447,78.671,261.925,77.436,262.078z"/>
		</g>
		<g>
			<path style="fill:#FF5E95;" d="M217.551,267.737c0.87-1.804-0.584-3.074-1.272-5.462c-1.01-3.504-3.171-4.047-4.315-2.807
				c-1.145,1.24-0.148,3.31-0.987,4.863c-0.003,0.005-0.005,0.01-0.008,0.014c-0.002,0.005-0.005,0.01-0.007,0.015
				c-0.777,1.585-3.042,1.975-3.387,3.627c-0.345,1.652,1.351,3.096,4.791,1.884C214.71,269.045,216.588,269.492,217.551,267.737z"
				/>
			<path style="fill:#FF5E95;" d="M221.083,264.121c-1.86,0.287-3.519-0.452-3.704-1.652c-0.185-1.199,1.173-2.405,3.033-2.692
				c1.861-0.287,3.519,0.452,3.704,1.652C224.302,262.629,222.944,263.834,221.083,264.121z"/>
			<path style="fill:#FF5E95;" d="M216.658,272.711c-0.846-1.682-2.411-2.602-3.495-2.057c-1.084,0.546-1.277,2.351-0.43,4.033
				c0.846,1.682,2.411,2.603,3.495,2.057C217.312,276.199,217.504,274.393,216.658,272.711z"/>
			<path style="fill:#FF5E95;" d="M222.513,269.709c-1.897-0.586-3.129-2.052-2.751-3.275c0.378-1.223,2.221-1.74,4.118-1.154
				c1.897,0.586,3.129,2.052,2.751,3.275S224.41,270.295,222.513,269.709z"/>
			<path style="fill:#FF5E95;" d="M222.038,270.631c-1.578-1.204-3.487-1.356-4.264-0.339c-0.777,1.017-0.127,2.819,1.451,4.023
				s3.487,1.356,4.264,0.339C224.266,273.637,223.616,271.836,222.038,270.631z"/>
		</g>
		<g>
			<path style="fill:#FF5E95;" d="M204.478,202.014c1.139-3.22-1.562-5.101-3.174-9.022c-2.364-5.752-6.128-6.27-7.838-3.955
				s0.365,5.639-0.768,8.428c-0.004,0.009-0.007,0.017-0.011,0.026c-0.003,0.009-0.006,0.018-0.009,0.026
				c-1.023,2.831-4.789,3.915-5.066,6.779c-0.277,2.864,2.867,4.997,8.472,2.302C199.904,204.762,203.171,205.169,204.478,202.014z"
				/>
			<path style="fill:#FF5E95;" d="M209.792,195.227c-3.1,0.833-6.049-0.112-6.586-2.11c-0.537-1.999,1.541-4.294,4.641-5.128
				c3.1-0.833,6.049,0.112,6.586,2.11C214.97,192.099,212.892,194.394,209.792,195.227z"/>
			<path style="fill:#FF5E95;" d="M203.889,210.614c-1.748-2.693-4.572-3.963-6.308-2.836c-1.736,1.127-1.727,4.223,0.021,6.916
				c1.748,2.693,4.572,3.963,6.308,2.836C205.646,216.403,205.637,213.307,203.889,210.614z"/>
			<path style="fill:#FF5E95;" d="M213.256,204.434c-3.325-0.64-5.686-2.896-5.273-5.039c0.412-2.143,3.442-3.362,6.766-2.723
				c3.325,0.64,5.686,2.896,5.273,5.039C219.61,203.855,216.581,205.074,213.256,204.434z"/>
			<path style="fill:#FF5E95;" d="M212.622,206.086c-2.899-1.748-6.163-1.65-7.29,0.219c-1.127,1.869,0.31,4.801,3.21,6.55
				c2.899,1.748,6.163,1.65,7.29-0.219C216.959,210.766,215.522,207.834,212.622,206.086z"/>
		</g>
		<g>
			<path style="fill:#FF5E95;" d="M167.715,266.693c-0.104,1.102,0.893,1.48,1.709,2.585c1.196,1.621,2.42,1.487,2.775,0.624
				c0.355-0.862-0.56-1.743-0.424-2.709c0-0.003,0.001-0.006,0.001-0.009c0-0.003,0.001-0.006,0.001-0.009
				c0.098-0.97,1.196-1.608,1.057-2.53c-0.139-0.922-1.295-1.344-2.844-0.055C168.935,265.469,167.877,265.598,167.715,266.693z"/>
			<path style="fill:#FF5E95;" d="M166.58,269.244c0.908-0.506,1.91-0.442,2.236,0.143c0.327,0.586-0.145,1.471-1.054,1.977
				c-0.908,0.506-1.91,0.442-2.236-0.144C165.2,270.636,165.672,269.751,166.58,269.244z"/>
			<path style="fill:#FF5E95;" d="M167.221,263.944c0.761,0.708,1.749,0.885,2.206,0.394c0.457-0.491,0.209-1.463-0.552-2.171
				c-0.762-0.708-1.749-0.885-2.206-0.394C166.213,262.264,166.46,263.236,167.221,263.944z"/>
			<path style="fill:#FF5E95;" d="M164.766,266.625c1.095-0.061,2.015,0.461,2.054,1.167c0.04,0.706-0.816,1.328-1.911,1.389
				c-1.095,0.061-2.015-0.461-2.054-1.167C162.815,267.308,163.671,266.686,164.766,266.625z"/>
			<path style="fill:#FF5E95;" d="M164.835,266.056c1.049,0.321,2.067,0.032,2.273-0.644c0.207-0.676-0.476-1.484-1.525-1.805
				c-1.049-0.321-2.067-0.032-2.273,0.644C163.103,264.927,163.786,265.735,164.835,266.056z"/>
		</g>
		<g>
			<path style="fill:#FF5E95;" d="M118.879,18.95c-0.983-0.748-1.93-0.026-3.458,0.096c-2.243,0.178-2.837,1.417-2.229,2.262
				c0.608,0.845,1.983,0.498,2.818,1.196c0.003,0.002,0.005,0.004,0.008,0.007c0.003,0.002,0.005,0.004,0.008,0.006
				c0.862,0.665,0.819,2.082,1.775,2.494c0.956,0.412,2.038-0.435,1.729-2.663C119.32,20.829,119.821,19.749,118.879,18.95z"/>
			<path style="fill:#FF5E95;" d="M117.129,16.37c-0.056,1.16-0.707,2.071-1.455,2.035c-0.748-0.036-1.309-1.005-1.253-2.165
				c0.056-1.16,0.707-2.071,1.455-2.035C116.624,14.24,117.185,15.21,117.129,16.37z"/>
			<path style="fill:#FF5E95;" d="M121.776,20.104c-1.121,0.304-1.87,1.136-1.674,1.859c0.196,0.722,1.264,1.062,2.384,0.757
				c1.121-0.304,1.87-1.136,1.674-1.859C123.964,20.138,122.896,19.799,121.776,20.104z"/>
			<path style="fill:#FF5E95;" d="M120.683,16.194c-0.588,1.074-1.626,1.638-2.318,1.259c-0.693-0.379-0.778-1.557-0.19-2.632
				c0.588-1.074,1.626-1.638,2.319-1.259C121.186,13.942,121.271,15.12,120.683,16.194z"/>
			<path style="fill:#FF5E95;" d="M121.182,16.595c-0.923,0.805-1.25,1.94-0.73,2.535c0.519,0.595,1.688,0.424,2.611-0.381
				c0.923-0.805,1.25-1.94,0.73-2.535C123.273,15.619,122.104,15.79,121.182,16.595z"/>
		</g>
		<g>
			<path style="fill:#FF5E95;" d="M325.627,177.714c0.691,1.393,2.163,1.108,3.955,1.825c2.63,1.052,3.993-0.014,3.779-1.307
				c-0.214-1.293-1.959-1.669-2.511-2.924c-0.002-0.004-0.004-0.008-0.005-0.012c-0.002-0.004-0.004-0.008-0.006-0.011
				c-0.601-1.232,0.24-2.807-0.609-3.806c-0.848-0.999-2.542-0.648-3.439,2.038C326.179,175.348,325.01,176.286,325.627,177.714z"/>
			<path style="fill:#FF5E95;" d="M326.159,181.604c0.711-1.277,1.955-1.941,2.779-1.483s0.915,1.866,0.204,3.143
				c-0.711,1.277-1.955,1.941-2.779,1.483C325.539,184.288,325.448,182.881,326.159,181.604z"/>
			<path style="fill:#FF5E95;" d="M323.003,174.794c1.434,0.283,2.745-0.237,2.928-1.162c0.182-0.925-0.832-1.904-2.267-2.187
				c-1.435-0.283-2.745,0.237-2.928,1.162C320.554,173.532,321.569,174.511,323.003,174.794z"/>
			<path style="fill:#FF5E95;" d="M322.051,179.815c1.264-0.884,2.75-0.94,3.319-0.125c0.57,0.815,0.007,2.191-1.257,3.075
				c-1.264,0.884-2.75,0.94-3.319,0.125C320.225,182.076,320.788,180.699,322.051,179.815z"/>
			<path style="fill:#FF5E95;" d="M321.713,179.084c1.491-0.393,2.494-1.491,2.241-2.452s-1.668-1.422-3.158-1.029
				c-1.491,0.393-2.494,1.491-2.241,2.452C318.808,179.017,320.222,179.477,321.713,179.084z"/>
		</g>
		<g>
			<path style="fill:#FF5E95;" d="M414.776,218.452c0.914-1.084,0.14-2.21,0.089-3.969c-0.076-2.581-1.462-3.333-2.465-2.684
				c-1.003,0.649-0.684,2.244-1.533,3.161c-0.003,0.003-0.005,0.006-0.008,0.009c-0.003,0.003-0.005,0.006-0.007,0.009
				c-0.812,0.95-2.434,0.819-2.961,1.891c-0.527,1.072,0.382,2.361,2.954,2.135C412.598,218.85,413.807,219.486,414.776,218.452z"/>
			<path style="fill:#FF5E95;" d="M417.835,216.594c-1.326-0.13-2.333-0.929-2.249-1.784c0.084-0.855,1.227-1.443,2.554-1.312
				c1.326,0.13,2.333,0.929,2.249,1.784C420.304,216.137,419.161,216.725,417.835,216.594z"/>
			<path style="fill:#FF5E95;" d="M413.289,221.706c-0.285-1.302-1.195-2.209-2.035-2.026c-0.839,0.183-1.289,1.388-1.005,2.69
				c0.284,1.302,1.195,2.209,2.035,2.025C413.123,224.213,413.573,223.008,413.289,221.706z"/>
			<path style="fill:#FF5E95;" d="M417.832,220.678c-1.198-0.735-1.784-1.958-1.31-2.73c0.474-0.772,1.829-0.802,3.027-0.067
				c1.198,0.735,1.784,1.957,1.31,2.73C420.385,221.383,419.03,221.413,417.832,220.678z"/>
			<path style="fill:#FF5E95;" d="M417.344,221.227c-0.87-1.104-2.152-1.544-2.864-0.983c-0.711,0.561-0.583,1.911,0.287,3.014
				c0.87,1.104,2.153,1.544,2.864,0.982C418.343,223.68,418.214,222.33,417.344,221.227z"/>
		</g>
		<g>
			<path style="fill:#FF5E95;" d="M308.713,27.059c2.304,0.721,3.563-1.236,6.291-2.476c4.002-1.819,4.27-4.492,2.59-5.639
				c-1.68-1.148-3.974,0.404-5.974-0.324c-0.006-0.002-0.012-0.005-0.019-0.007c-0.006-0.002-0.013-0.004-0.019-0.006
				c-2.027-0.649-2.89-3.281-4.92-3.402c-2.031-0.121-3.455,2.155-1.406,6.044C306.654,23.9,306.451,26.218,308.713,27.059z"/>
			<path style="fill:#FF5E95;" d="M313.645,30.637c-0.669-2.168-0.078-4.276,1.32-4.707c1.398-0.431,3.074,0.977,3.743,3.145
				s0.078,4.276-1.32,4.707C315.99,34.214,314.315,32.805,313.645,30.637z"/>
			<path style="fill:#FF5E95;" d="M302.624,26.867c1.857-1.305,2.681-3.332,1.84-4.529c-0.841-1.197-3.028-1.11-4.885,0.194
				c-1.857,1.304-2.681,3.332-1.84,4.529C298.579,28.259,300.767,28.171,302.624,26.867z"/>
			<path style="fill:#FF5E95;" d="M307.232,33.323c0.365-2.365,1.898-4.091,3.423-3.856c1.525,0.236,2.464,2.344,2.099,4.709
				s-1.898,4.091-3.422,3.856C307.806,37.797,306.866,35.688,307.232,33.323z"/>
			<path style="fill:#FF5E95;" d="M306.049,32.918c1.159-2.094,1.005-4.397-0.344-5.144c-1.35-0.748-3.384,0.344-4.543,2.437
				c-1.16,2.094-1.005,4.397,0.344,5.144C302.855,36.103,304.889,35.012,306.049,32.918z"/>
		</g>
		<g>
			<path style="fill:#FF5E95;" d="M369.717,173.657c-1.12-2.025-3.288-1.501-6-2.447c-3.979-1.387-5.933,0.288-5.528,2.195
				c0.405,1.907,3.023,2.35,3.927,4.178c0.003,0.006,0.006,0.011,0.008,0.017c0.003,0.006,0.006,0.011,0.009,0.017
				c0.975,1.791-0.168,4.187,1.159,5.616c1.327,1.428,3.822,0.793,4.975-3.26C369.054,177.21,370.729,175.738,369.717,173.657z"/>
			<path style="fill:#FF5E95;" d="M368.665,167.912c-0.971,1.946-2.776,3.016-4.031,2.39c-1.255-0.626-1.484-2.712-0.513-4.658
				c0.971-1.946,2.776-3.016,4.031-2.39C369.407,163.881,369.637,165.966,368.665,167.912z"/>
			<path style="fill:#FF5E95;" d="M373.812,177.821c-2.151-0.325-4.064,0.536-4.273,1.923c-0.209,1.387,1.365,2.774,3.515,3.098
				c2.151,0.325,4.064-0.536,4.273-1.923C377.536,179.533,375.962,178.145,373.812,177.821z"/>
			<path style="fill:#FF5E95;" d="M374.89,170.295c-1.819,1.398-4.024,1.58-4.925,0.408c-0.901-1.173-0.157-3.256,1.661-4.654
				c1.819-1.398,4.024-1.58,4.925-0.408C377.452,166.814,376.708,168.897,374.89,170.295z"/>
			<path style="fill:#FF5E95;" d="M375.442,171.359c-2.19,0.684-3.607,2.383-3.166,3.794c0.441,1.411,2.573,2.001,4.763,1.317
				c2.189-0.684,3.607-2.383,3.166-3.794C379.764,171.264,377.632,170.675,375.442,171.359z"/>
		</g>
		<g>
			<path style="fill:#FF5E95;" d="M377.904,131.18c3.361,2.438,6.486-0.062,11.613-0.588c7.521-0.772,9.423-4.982,7.314-7.773
				c-2.109-2.792-6.7-1.519-9.561-3.802c-0.009-0.007-0.018-0.014-0.027-0.021c-0.009-0.007-0.018-0.013-0.027-0.02
				c-2.948-2.169-2.913-6.933-6.156-8.244c-3.244-1.311-6.814,1.619-5.605,9.082C376.278,124.901,374.676,128.569,377.904,131.18z"
				/>
			<path style="fill:#FF5E95;" d="M383.983,139.716c0.098-3.902,2.216-7.014,4.732-6.951c2.515,0.063,4.475,3.277,4.377,7.179
				s-2.216,7.014-4.732,6.951C385.845,146.832,383.885,143.618,383.983,139.716z"/>
			<path style="fill:#FF5E95;" d="M368.081,127.529c3.742-1.109,6.197-3.963,5.482-6.376s-4.328-3.47-8.07-2.361
				c-3.742,1.109-6.197,3.963-5.482,6.376C360.726,127.58,364.339,128.637,368.081,127.529z"/>
			<path style="fill:#FF5E95;" d="M372.055,140.579c1.892-3.655,5.337-5.63,7.693-4.41c2.357,1.22,2.733,5.172,0.84,8.827
				c-1.892,3.655-5.337,5.63-7.693,4.41C370.539,148.187,370.163,144.235,372.055,140.579z"/>
			<path style="fill:#FF5E95;" d="M370.348,139.271c3.038-2.777,4.049-6.616,2.259-8.575c-1.79-1.958-5.705-1.295-8.742,1.483
				c-3.038,2.777-4.049,6.616-2.259,8.575C363.396,142.712,367.31,142.048,370.348,139.271z"/>
		</g>
		<g>
			<path style="fill:#FF5E95;" d="M280.878,178.523c3.171-1.576,2.517-4.926,4.146-9.009c2.389-5.989-0.04-9.09-2.983-8.6
				c-2.943,0.49-3.797,4.463-6.653,5.722c-0.009,0.004-0.018,0.008-0.027,0.012c-0.009,0.004-0.017,0.008-0.026,0.013
				c-2.804,1.37-6.391-0.539-8.664,1.394c-2.273,1.933-1.47,5.79,4.648,7.826C275.49,177.27,277.628,179.93,280.878,178.523z"/>
			<path style="fill:#FF5E95;" d="M289.732,177.303c-2.91-1.616-4.424-4.448-3.382-6.324c1.042-1.876,4.246-2.087,7.156-0.47
				c2.91,1.616,4.424,4.447,3.382,6.324C295.846,178.709,292.642,178.919,289.732,177.303z"/>
			<path style="fill:#FF5E95;" d="M274.236,184.503c0.642-3.266-0.546-6.25-2.651-6.663c-2.106-0.414-4.333,1.899-4.974,5.166
				c-0.641,3.266,0.546,6.25,2.651,6.663C271.367,190.082,273.594,187.769,274.236,184.503z"/>
			<path style="fill:#FF5E95;" d="M285.669,186.659c-2.014-2.875-2.145-6.258-0.292-7.557c1.853-1.299,4.989-0.021,7.003,2.854
				c2.014,2.875,2.145,6.258,0.292,7.557C290.819,190.811,287.684,189.534,285.669,186.659z"/>
			<path style="fill:#FF5E95;" d="M284.006,187.432c-0.898-3.394-3.4-5.676-5.587-5.096c-2.188,0.579-3.233,3.799-2.335,7.193
				c0.898,3.394,3.4,5.675,5.588,5.096C283.858,194.046,284.904,190.825,284.006,187.432z"/>
		</g>
		<g>
			<path style="fill:#36D4FF;" d="M382.622,213.33c3.253,2.174,6.106-0.292,10.914-0.973c7.055-0.999,8.693-5.031,6.606-7.584
				c-2.087-2.553-6.364-1.189-9.14-3.235c-0.009-0.006-0.017-0.013-0.026-0.019c-0.009-0.006-0.018-0.012-0.027-0.018
				c-2.854-1.936-2.993-6.423-6.095-7.541c-3.102-1.117-6.358,1.771-4.95,8.755C380.864,207.475,379.488,210.987,382.622,213.33z"/>
			<path style="fill:#36D4FF;" d="M388.655,221.148c-0.049-3.678,1.834-6.685,4.205-6.716s4.332,2.925,4.381,6.603
				c0.049,3.678-1.834,6.685-4.205,6.716C390.665,227.782,388.703,224.826,388.655,221.148z"/>
			<path style="fill:#36D4FF;" d="M373.24,210.246c3.484-1.179,5.692-3.956,4.932-6.202c-0.76-2.246-4.201-3.111-7.685-1.932
				c-3.484,1.179-5.692,3.956-4.932,6.202C366.315,210.56,369.756,211.425,373.24,210.246z"/>
			<path style="fill:#36D4FF;" d="M377.453,222.392c1.65-3.511,4.822-5.494,7.085-4.43c2.263,1.064,2.76,4.772,1.11,8.282
				s-4.822,5.494-7.085,4.43C376.3,229.611,375.803,225.902,377.453,222.392z"/>
			<path style="fill:#36D4FF;" d="M375.799,221.221c2.76-2.725,3.574-6.377,1.817-8.156c-1.757-1.779-5.419-1.013-8.179,1.712
				c-2.76,2.725-3.574,6.377-1.817,8.156C369.376,224.713,373.038,223.947,375.799,221.221z"/>
		</g>
		<g>
			<path style="fill:#36D4FF;" d="M354.753,91.485c-1.092-0.73-2.05,0.098-3.665,0.326c-2.369,0.335-2.919,1.688-2.219,2.546
				c0.7,0.857,2.137,0.4,3.069,1.087c0.003,0.002,0.006,0.004,0.009,0.006c0.003,0.002,0.006,0.004,0.009,0.006
				c0.958,0.65,1.004,2.157,2.046,2.533c1.041,0.376,2.135-0.594,1.663-2.939C355.342,93.451,355.805,92.272,354.753,91.485z"/>
			<path style="fill:#36D4FF;" d="M352.728,88.859c0.016,1.235-0.617,2.244-1.413,2.255c-0.796,0.01-1.454-0.982-1.47-2.217
				s0.617-2.244,1.413-2.255C352.054,86.632,352.712,87.624,352.728,88.859z"/>
			<path style="fill:#36D4FF;" d="M357.902,92.522c-1.17,0.396-1.912,1.328-1.657,2.082c0.255,0.754,1.41,1.045,2.58,0.65
				c1.17-0.396,1.912-1.328,1.657-2.082C360.228,92.417,359.072,92.127,357.902,92.522z"/>
			<path style="fill:#36D4FF;" d="M356.489,88.443c-0.554,1.179-1.62,1.844-2.38,1.487c-0.76-0.357-0.926-1.603-0.372-2.781
				c0.554-1.178,1.62-1.844,2.38-1.487C356.877,86.02,357.044,87.265,356.489,88.443z"/>
			<path style="fill:#36D4FF;" d="M357.045,88.836c-0.927,0.915-1.201,2.141-0.611,2.738c0.59,0.598,1.819,0.341,2.746-0.574
				c0.927-0.915,1.201-2.141,0.611-2.738C359.202,87.665,357.972,87.922,357.045,88.836z"/>
		</g>
		<g>
			<path style="fill:#36D4FF;" d="M147.815,210.391c0.332-2.331-1.749-3.236-3.371-5.667c-2.38-3.567-4.994-3.405-5.835-1.608
				c-0.841,1.797,1.013,3.762,0.626,5.801c-0.001,0.006-0.002,0.013-0.004,0.019c-0.001,0.006-0.002,0.013-0.003,0.019
				c-0.307,2.053-2.705,3.297-2.503,5.27c0.202,1.974,2.617,2.988,6.039,0.405C145.097,212.869,147.36,212.701,147.815,210.391z"/>
			<path style="fill:#36D4FF;" d="M150.485,205.082c-1.982,0.984-4.104,0.746-4.738-0.532c-0.635-1.278,0.458-3.112,2.44-4.096
				c1.982-0.984,4.104-0.746,4.738,0.532S152.467,204.097,150.485,205.082z"/>
			<path style="fill:#36D4FF;" d="M148.586,216.283c-1.547-1.583-3.628-2.057-4.649-1.06c-1.02,0.997-0.593,3.089,0.954,4.672
				c1.547,1.583,3.629,2.057,4.649,1.06C150.56,219.958,150.133,217.866,148.586,216.283z"/>
			<path style="fill:#36D4FF;" d="M154.077,210.834c-2.334,0.019-4.236-1.185-4.249-2.689c-0.012-1.505,1.87-2.74,4.204-2.76
				c2.334-0.019,4.236,1.185,4.249,2.689C158.293,209.579,156.411,210.814,154.077,210.834z"/>
			<path style="fill:#36D4FF;" d="M153.873,212.036c-2.197-0.788-4.39-0.278-4.898,1.139c-0.508,1.417,0.862,3.203,3.059,3.991
				c2.197,0.788,4.39,0.278,4.898-1.139C157.44,214.611,156.07,212.824,153.873,212.036z"/>
		</g>
		<g>
			<path style="fill:#36D4FF;" d="M20.301,225.953c1.572-0.284,1.711-1.817,2.93-3.38c1.789-2.293,1.127-3.942-0.209-4.1
				c-1.337-0.158-2.206,1.455-3.602,1.641c-0.004,0.001-0.009,0.001-0.013,0.002c-0.004,0.001-0.009,0.001-0.013,0.002
				c-1.387,0.24-2.7-1.038-3.928-0.487c-1.228,0.551-1.366,2.323,1.028,3.975C18.125,224.732,18.716,226.153,20.301,225.953z"/>
			<path style="fill:#36D4FF;" d="M24.289,226.539c-1.057-1.066-1.356-2.483-0.669-3.165c0.688-0.681,2.102-0.369,3.159,0.697
				c1.057,1.066,1.356,2.483,0.669,3.165C26.76,227.918,25.346,227.606,24.289,226.539z"/>
			<path style="fill:#36D4FF;" d="M16.671,227.706c0.689-1.334,0.551-2.775-0.309-3.22c-0.86-0.444-2.116,0.277-2.805,1.611
				c-0.689,1.334-0.551,2.775,0.309,3.22C14.726,229.762,15.982,229.04,16.671,227.706z"/>
			<path style="fill:#36D4FF;" d="M21.351,230.08c-0.51-1.499-0.141-2.981,0.825-3.31c0.966-0.329,2.163,0.619,2.674,2.118
				c0.51,1.499,0.141,2.981-0.825,3.31C23.059,232.527,21.862,231.579,21.351,230.08z"/>
			<path style="fill:#36D4FF;" d="M20.534,230.205c0.038-1.583-0.758-2.886-1.778-2.911c-1.021-0.025-1.879,1.239-1.917,2.821
				c-0.038,1.583,0.758,2.886,1.778,2.911C19.637,233.051,20.495,231.788,20.534,230.205z"/>
		</g>
		<g>
			<path style="fill:#36D4FF;" d="M260.947,25.47c-1.277-1.235-2.751-0.364-4.955-0.45c-3.233-0.125-4.291,1.543-3.566,2.853
				c0.725,1.309,2.747,1.047,3.821,2.186c0.003,0.003,0.007,0.007,0.01,0.011c0.004,0.003,0.007,0.007,0.01,0.01
				c1.118,1.096,0.817,3.112,2.112,3.863c1.295,0.751,2.984-0.276,2.921-3.51C261.258,28.228,262.157,26.771,260.947,25.47z"/>
			<path style="fill:#36D4FF;" d="M258.885,21.489c-0.276,1.647-1.361,2.838-2.423,2.66c-1.062-0.178-1.699-1.658-1.422-3.305
				c0.276-1.647,1.361-2.838,2.423-2.66C258.525,18.362,259.162,19.842,258.885,21.489z"/>
			<path style="fill:#36D4FF;" d="M264.888,27.608c-1.652,0.244-2.864,1.306-2.706,2.371c0.158,1.065,1.624,1.73,3.276,1.486
				c1.652-0.244,2.863-1.306,2.706-2.371C268.007,28.029,266.54,27.364,264.888,27.608z"/>
			<path style="fill:#36D4FF;" d="M263.99,21.841c-1.022,1.435-2.599,2.064-3.524,1.405c-0.925-0.659-0.846-2.355,0.175-3.79
				c1.022-1.435,2.599-2.064,3.524-1.405C265.09,18.709,265.012,20.406,263.99,21.841z"/>
			<path style="fill:#36D4FF;" d="M264.635,22.498c-1.454,0.994-2.113,2.559-1.473,3.497c0.641,0.937,2.339,0.892,3.793-0.102
				s2.113-2.559,1.473-3.497C267.787,21.458,266.089,21.504,264.635,22.498z"/>
		</g>
		<g>
			<path style="fill:#36D4FF;" d="M100.689,228.549c0.778,4.064,4.754,4.38,8.837,7.495c5.99,4.57,10.243,2.809,10.616-0.657
				c0.372-3.467-3.831-5.674-4.351-9.284c-0.002-0.011-0.003-0.022-0.005-0.034c-0.002-0.011-0.004-0.022-0.006-0.033
				c-0.662-3.587,2.614-7.023,1.152-10.188c-1.462-3.165-6.054-3.473-10.268,2.774C103.792,222.878,100.126,224.449,100.689,228.549
				z"/>
			<path style="fill:#36D4FF;" d="M99.282,238.897c2.733-2.768,6.395-3.583,8.179-1.821c1.784,1.762,1.015,5.434-1.718,8.201
				c-2.733,2.768-6.395,3.583-8.179,1.821C95.78,245.336,96.549,241.664,99.282,238.897z"/>
			<path style="fill:#36D4FF;" d="M96.045,219.195c3.475,1.748,7.205,1.348,8.332-0.892c1.127-2.24-0.777-5.473-4.252-7.22
				c-3.475-1.748-7.205-1.349-8.332,0.892C90.667,214.215,92.57,217.448,96.045,219.195z"/>
			<path style="fill:#36D4FF;" d="M90.028,231.386c3.868-1.364,7.717-0.449,8.597,2.045c0.88,2.494-1.543,5.621-5.412,6.986
				c-3.868,1.364-7.717,0.449-8.597-2.045C83.737,235.878,86.16,232.751,90.028,231.386z"/>
			<path style="fill:#36D4FF;" d="M89.681,229.271c4.102,0.055,7.455-2.044,7.491-4.688s-3.261-4.832-7.362-4.887
				c-4.102-0.055-7.455,2.044-7.491,4.688S85.579,229.217,89.681,229.271z"/>
		</g>
		<g>
			<path style="fill:#36D4FF;" d="M31.512,116.076c-2.726-2.136-5.408-0.149-9.697,0.131c-6.293,0.411-8.008,3.86-6.337,6.252
				c1.671,2.392,5.537,1.474,7.851,3.465c0.007,0.006,0.014,0.012,0.021,0.019c0.007,0.006,0.015,0.012,0.022,0.018
				c2.39,1.899,2.213,5.869,4.876,7.062c2.663,1.193,5.73-1.138,4.953-7.397C32.673,121.359,34.121,118.353,31.512,116.076z"/>
			<path style="fill:#36D4FF;" d="M26.709,108.773c-0.202,3.249-2.065,5.777-4.159,5.647c-2.094-0.131-3.628-2.87-3.426-6.119
				c0.203-3.249,2.065-5.777,4.159-5.647C25.378,102.784,26.912,105.524,26.709,108.773z"/>
			<path style="fill:#36D4FF;" d="M39.585,119.423c-3.153,0.808-5.288,3.111-4.767,5.144c0.521,2.033,3.5,3.026,6.653,2.218
				c3.153-0.808,5.288-3.111,4.767-5.144C45.718,119.608,42.739,118.615,39.585,119.423z"/>
			<path style="fill:#36D4FF;" d="M36.678,108.423c-1.69,2.988-4.622,4.527-6.549,3.437c-1.926-1.09-2.118-4.396-0.427-7.384
				c1.69-2.988,4.622-4.527,6.549-3.437C38.177,102.129,38.368,105.435,36.678,108.423z"/>
			<path style="fill:#36D4FF;" d="M38.06,109.566c-2.618,2.221-3.58,5.389-2.148,7.077c1.432,1.688,4.715,1.256,7.333-0.965
				c2.618-2.221,3.58-5.389,2.148-7.077C43.961,106.913,40.678,107.345,38.06,109.566z"/>
		</g>
		<g>
			<path style="fill:#36D4FF;" d="M409.224,263.883c-0.087-1.127-1.157-1.334-2.17-2.304c-1.487-1.423-2.695-1.075-2.901-0.145
				c-0.207,0.93,0.867,1.657,0.898,2.653c0,0.003,0,0.006,0,0.009c0,0.003,0,0.006,0.001,0.009c0.07,0.994-0.924,1.827-0.623,2.73
				c0.3,0.904,1.538,1.127,2.872-0.44C408.209,265.328,409.251,265.013,409.224,263.883z"/>
			<path style="fill:#36D4FF;" d="M409.921,261.117c-0.826,0.668-1.845,0.778-2.276,0.245c-0.431-0.533-0.11-1.506,0.716-2.174
				c0.826-0.668,1.845-0.778,2.276-0.245C411.068,259.476,410.747,260.449,409.921,261.117z"/>
			<path style="fill:#36D4FF;" d="M410.199,266.564c-0.89-0.58-1.915-0.586-2.289-0.012c-0.374,0.574,0.044,1.509,0.934,2.089
				c0.89,0.58,1.915,0.586,2.289,0.012C411.507,268.079,411.089,267.144,410.199,266.564z"/>
			<path style="fill:#36D4FF;" d="M412.204,263.438c-1.091,0.253-2.108-0.113-2.271-0.817c-0.163-0.704,0.59-1.479,1.682-1.731
				c1.092-0.253,2.108,0.113,2.271,0.817C414.048,262.41,413.295,263.185,412.204,263.438z"/>
			<path style="fill:#36D4FF;" d="M412.234,264.023c-1.112-0.14-2.086,0.328-2.176,1.044c-0.09,0.717,0.738,1.411,1.85,1.551
				c1.112,0.14,2.086-0.328,2.176-1.044C414.173,264.857,413.345,264.163,412.234,264.023z"/>
		</g>
		<g>
			<path style="fill:#36D4FF;" d="M152.536,125.528c0.905-0.938,0.265-2.019,0.326-3.635c0.089-2.371-1.136-3.147-2.096-2.614
				c-0.96,0.533-0.766,2.016-1.6,2.805c-0.003,0.003-0.005,0.005-0.008,0.007c-0.003,0.003-0.005,0.005-0.007,0.008
				c-0.803,0.821-2.282,0.602-2.832,1.552c-0.55,0.951,0.205,2.189,2.577,2.14C150.513,125.758,151.583,126.416,152.536,125.528z"/>
			<path style="fill:#36D4FF;" d="M155.455,124.012c-1.208-0.201-2.083-0.996-1.953-1.775c0.13-0.779,1.215-1.247,2.423-1.046
				c1.208,0.201,2.083,0.996,1.953,1.775C157.748,123.745,156.663,124.214,155.455,124.012z"/>
			<path style="fill:#36D4FF;" d="M150.971,128.421c-0.181-1.212-0.96-2.099-1.741-1.983s-1.268,1.193-1.087,2.405
				c0.181,1.212,0.96,2.1,1.741,1.983C150.665,130.709,151.152,129.632,150.971,128.421z"/>
			<path style="fill:#36D4FF;" d="M155.201,127.757c-1.053-0.748-1.516-1.905-1.034-2.584c0.482-0.679,1.727-0.623,2.78,0.125
				c1.053,0.748,1.516,1.905,1.034,2.584C157.499,128.561,156.254,128.505,155.201,127.757z"/>
			<path style="fill:#36D4FF;" d="M154.72,128.23c-0.73-1.066-1.879-1.548-2.566-1.077c-0.687,0.471-0.652,1.716,0.078,2.782
				c0.73,1.066,1.879,1.548,2.566,1.077C155.485,130.542,155.45,129.296,154.72,128.23z"/>
		</g>
		<g>
			<path style="fill:#36D4FF;" d="M92.1,131.223c-0.775,2.85,1.675,4.299,3.317,7.576c2.409,4.808,5.688,5.013,7.013,2.906
				c1.326-2.106-0.678-4.839,0.12-7.317c0.002-0.008,0.005-0.015,0.007-0.023c0.002-0.008,0.004-0.016,0.007-0.023
				c0.7-2.507,3.878-3.684,3.932-6.172c0.055-2.488-2.794-4.125-7.454-1.44C95.867,128.559,93.024,128.418,92.1,131.223z"/>
			<path style="fill:#36D4FF;" d="M87.954,137.417c2.62-0.918,5.224-0.293,5.815,1.396c0.592,1.689-1.052,3.802-3.672,4.72
				c-2.62,0.918-5.224,0.293-5.816-1.396C83.689,140.449,85.334,138.335,87.954,137.417z"/>
			<path style="fill:#36D4FF;" d="M92.054,123.769c1.68,2.21,4.197,3.123,5.622,2.04c1.425-1.083,1.217-3.753-0.463-5.963
				c-1.68-2.21-4.197-3.123-5.622-2.04C90.166,118.89,90.373,121.56,92.054,123.769z"/>
			<path style="fill:#36D4FF;" d="M84.374,129.701c2.908,0.338,5.089,2.131,4.872,4.006c-0.218,1.875-2.752,3.121-5.66,2.783
				c-2.908-0.338-5.089-2.131-4.871-4.006C78.932,130.609,81.466,129.363,84.374,129.701z"/>
			<path style="fill:#36D4FF;" d="M84.814,128.236c2.613,1.321,5.421,1.026,6.273-0.658c0.852-1.684-0.576-4.121-3.189-5.442
				c-2.613-1.321-5.421-1.026-6.273,0.658C80.774,124.478,82.201,126.915,84.814,128.236z"/>
		</g>
		<g>
			<path style="fill:#36D4FF;" d="M248.38,204.561c0.899-2.417-1.118-3.871-2.287-6.85c-1.716-4.372-4.551-4.808-5.87-3.081
				c-1.319,1.727,0.208,4.262-0.682,6.354c-0.003,0.007-0.005,0.013-0.008,0.02c-0.003,0.007-0.005,0.013-0.007,0.02
				c-0.807,2.125-3.663,2.898-3.907,5.058c-0.244,2.16,2.104,3.807,6.369,1.84C244.894,206.581,247.355,206.928,248.38,204.561z"/>
			<path style="fill:#36D4FF;" d="M252.475,199.501c-2.351,0.592-4.566-0.157-4.948-1.673c-0.381-1.516,1.215-3.224,3.566-3.816
				c2.351-0.592,4.566,0.157,4.947,1.673C256.422,197.201,254.826,198.909,252.475,199.501z"/>
			<path style="fill:#36D4FF;" d="M247.832,211.047c-1.287-2.055-3.404-3.047-4.729-2.218c-1.325,0.83-1.355,3.168-0.068,5.222
				c1.287,2.055,3.404,3.047,4.729,2.218C249.089,215.44,249.119,213.102,247.832,211.047z"/>
			<path style="fill:#36D4FF;" d="M254.979,206.495c-2.503-0.523-4.258-2.255-3.921-3.868c0.337-1.613,2.639-2.497,5.142-1.974
				s4.258,2.255,3.921,3.868C259.784,206.134,257.482,207.018,254.979,206.495z"/>
			<path style="fill:#36D4FF;" d="M254.481,207.734c-2.168-1.355-4.634-1.32-5.507,0.078c-0.874,1.398,0.176,3.629,2.344,4.984
				c2.168,1.355,4.634,1.32,5.507-0.078C257.699,211.32,256.649,209.089,254.481,207.734z"/>
		</g>
		<g>
			<path style="fill:#36D4FF;" d="M27.509,265.979c0.671,1.249,2.003,0.944,3.657,1.544c2.427,0.88,3.636-0.132,3.403-1.303
				s-1.834-1.462-2.374-2.589c-0.002-0.003-0.003-0.007-0.005-0.01c-0.002-0.003-0.004-0.007-0.006-0.01
				c-0.584-1.105,0.134-2.564-0.668-3.449c-0.802-0.885-2.335-0.514-3.072,1.96C27.941,263.807,26.904,264.696,27.509,265.979z"/>
			<path style="fill:#36D4FF;" d="M28.11,269.505c0.61-1.185,1.723-1.827,2.487-1.434c0.764,0.393,0.889,1.672,0.279,2.857
				c-0.61,1.185-1.723,1.827-2.487,1.434C27.625,271.97,27.5,270.69,28.11,269.505z"/>
			<path style="fill:#36D4FF;" d="M25.031,263.397c1.315,0.215,2.493-0.298,2.632-1.146c0.139-0.848-0.815-1.709-2.13-1.924
				c-1.315-0.215-2.493,0.298-2.632,1.146C22.763,262.321,23.716,263.182,25.031,263.397z"/>
			<path style="fill:#36D4FF;" d="M24.315,267.999c1.125-0.843,2.477-0.938,3.02-0.213c0.543,0.725,0.072,1.996-1.053,2.838
				c-1.125,0.843-2.477,0.938-3.02,0.213C22.719,270.113,23.19,268.842,24.315,267.999z"/>
			<path style="fill:#36D4FF;" d="M23.984,267.344c1.346-0.402,2.227-1.432,1.968-2.301c-0.26-0.868-1.561-1.245-2.908-0.843
				c-1.346,0.402-2.227,1.432-1.968,2.3C21.336,267.369,22.638,267.746,23.984,267.344z"/>
		</g>
		<g>
			<path style="fill:#36D4FF;" d="M333.249,132.198c-0.946,3.276,1.856,4.992,3.693,8.805c2.694,5.594,6.475,5.889,8.043,3.481
				c1.568-2.407-0.695-5.599,0.271-8.445c0.003-0.009,0.006-0.018,0.009-0.027c0.003-0.009,0.005-0.018,0.008-0.027
				c0.853-2.882,4.543-4.183,4.651-7.054c0.108-2.871-3.151-4.812-8.578-1.797C337.646,129.191,334.366,128.977,333.249,132.198z"/>
			<path style="fill:#36D4FF;" d="M328.351,139.274c3.041-1.012,6.035-0.244,6.688,1.717c0.653,1.96-1.283,4.37-4.324,5.383
				c-3.041,1.012-6.035,0.244-6.688-1.717C323.374,142.696,325.31,140.286,328.351,139.274z"/>
			<path style="fill:#36D4FF;" d="M333.331,123.593c1.9,2.581,4.789,3.681,6.453,2.456c1.664-1.225,1.473-4.31-0.427-6.892
				c-1.9-2.581-4.789-3.681-6.453-2.456C331.24,117.926,331.431,121.012,333.331,123.593z"/>
			<path style="fill:#36D4FF;" d="M324.358,130.301c3.351,0.442,5.836,2.552,5.551,4.712c-0.285,2.16-3.233,3.553-6.584,3.111
				c-3.351-0.442-5.836-2.552-5.551-4.712C318.06,131.252,321.008,129.859,324.358,130.301z"/>
			<path style="fill:#36D4FF;" d="M324.893,128.618c2.992,1.572,6.239,1.283,7.253-0.646c1.013-1.929-0.591-4.767-3.583-6.339
				c-2.992-1.572-6.24-1.283-7.253,0.646S321.901,127.046,324.893,128.618z"/>
		</g>
		<g>
			<path style="fill:#36D4FF;" d="M210.684,23.567c1.213,0.266,1.77-0.793,3.112-1.552c1.969-1.112,1.986-2.493,1.073-3.006
				c-0.912-0.513-2.018,0.386-3.075,0.103c-0.003-0.001-0.007-0.002-0.01-0.003c-0.003-0.001-0.007-0.001-0.01-0.002
				c-1.067-0.241-1.628-1.551-2.674-1.522c-1.046,0.029-1.673,1.26-0.448,3.16C209.486,22.041,209.487,23.238,210.684,23.567z"/>
			<path style="fill:#36D4FF;" d="M213.372,25.178c-0.44-1.081-0.232-2.187,0.464-2.471c0.697-0.284,1.619,0.362,2.059,1.443
				c0.44,1.081,0.232,2.187-0.464,2.471C214.734,26.905,213.812,26.259,213.372,25.178z"/>
			<path style="fill:#36D4FF;" d="M207.555,23.742c0.893-0.752,1.223-1.828,0.739-2.403c-0.485-0.576-1.601-0.433-2.494,0.319
				c-0.893,0.752-1.224,1.828-0.739,2.403C205.546,24.637,206.662,24.494,207.555,23.742z"/>
			<path style="fill:#36D4FF;" d="M210.206,26.843c0.081-1.228,0.788-2.182,1.58-2.129c0.792,0.052,1.368,1.09,1.287,2.318
				c-0.081,1.228-0.788,2.182-1.58,2.129C210.702,29.109,210.126,28.071,210.206,26.843z"/>
			<path style="fill:#36D4FF;" d="M209.582,26.689c0.5-1.125,0.317-2.298-0.408-2.62c-0.725-0.322-1.718,0.328-2.218,1.453
				c-0.5,1.125-0.317,2.298,0.408,2.62S209.082,27.813,209.582,26.689z"/>
		</g>
		<g>
			<path style="fill:#36D4FF;" d="M119.132,56.164c-1.79,1.833-0.545,3.965-0.685,7.141c-0.205,4.66,2.194,6.2,4.087,5.163
				c1.894-1.036,1.53-3.953,3.18-5.494c0.005-0.005,0.01-0.01,0.015-0.014c0.005-0.005,0.01-0.01,0.015-0.015
				c1.589-1.604,4.494-1.154,5.586-3.017c1.092-1.862-0.376-4.305-5.04-4.238C123.111,55.736,121.017,54.429,119.132,56.164z"/>
			<path style="fill:#36D4FF;" d="M113.375,59.107c2.373,0.41,4.082,1.983,3.817,3.513c-0.265,1.53-2.403,2.437-4.776,2.027
				c-2.373-0.411-4.082-1.984-3.817-3.513C108.864,59.604,111.002,58.697,113.375,59.107z"/>
			<path style="fill:#36D4FF;" d="M122.244,50.496c0.34,2.384,1.862,4.139,3.399,3.919c1.537-0.219,2.507-2.33,2.167-4.714
				c-0.34-2.384-1.862-4.139-3.399-3.919C122.874,46.002,121.904,48.112,122.244,50.496z"/>
			<path style="fill:#36D4FF;" d="M113.921,51.749c2.061,1.484,2.957,3.764,2,5.092c-0.956,1.329-3.403,1.203-5.464-0.281
				c-2.061-1.484-2.957-3.764-2-5.092C109.413,50.139,111.86,50.265,113.921,51.749z"/>
			<path style="fill:#36D4FF;" d="M114.873,50.824c1.422,2.104,3.675,3.067,5.031,2.15s1.303-3.366-0.119-5.47
				c-1.422-2.104-3.675-3.066-5.031-2.15C113.397,46.271,113.451,48.72,114.873,50.824z"/>
		</g>
		<g>
			<path style="fill:#FFAA00;" d="M126.136,262.67c0.474-1.086-0.415-1.804-0.875-3.201c-0.676-2.049-1.966-2.321-2.615-1.563
				c-0.649,0.759-0.013,1.961-0.474,2.898c-0.001,0.003-0.003,0.006-0.004,0.009c-0.001,0.003-0.003,0.006-0.004,0.009
				c-0.424,0.954-1.754,1.236-1.921,2.221c-0.167,0.985,0.869,1.8,2.875,1.006C124.485,263.508,125.605,263.73,126.136,262.67z"/>
			<path style="fill:#FFAA00;" d="M128.143,260.453c-1.094,0.212-2.091-0.188-2.227-0.893c-0.137-0.705,0.639-1.448,1.733-1.66
				c1.094-0.212,2.091,0.188,2.227,0.893C130.013,259.498,129.237,260.241,128.143,260.453z"/>
			<path style="fill:#FFAA00;" d="M125.719,265.632c-0.538-0.975-1.484-1.485-2.113-1.138c-0.629,0.347-0.702,1.419-0.164,2.394
				c0.538,0.975,1.484,1.485,2.113,1.138C126.184,267.679,126.258,266.607,125.719,265.632z"/>
			<path style="fill:#FFAA00;" d="M129.114,263.725c-1.135-0.304-1.896-1.143-1.7-1.874c0.196-0.732,1.274-1.079,2.409-0.775
				c1.135,0.304,1.896,1.143,1.7,1.874C131.328,263.682,130.249,264.029,129.114,263.725z"/>
			<path style="fill:#FFAA00;" d="M128.854,264.281c-0.96-0.677-2.092-0.724-2.529-0.105c-0.436,0.619-0.011,1.669,0.949,2.346
				c0.96,0.677,2.092,0.723,2.529,0.104C130.239,266.008,129.814,264.958,128.854,264.281z"/>
		</g>
		<g>
			<path style="fill:#FFAA00;" d="M60.092,157.006c1.044-0.861,0.512-2.051,0.766-3.712c0.372-2.436-0.8-3.381-1.853-2.944
				c-1.054,0.437-1.028,1.989-1.983,2.705c-0.003,0.002-0.006,0.004-0.009,0.007c-0.003,0.002-0.006,0.005-0.009,0.007
				c-0.926,0.752-2.426,0.351-3.105,1.267c-0.679,0.916-0.047,2.282,2.406,2.512C57.978,157.005,59.004,157.811,60.092,157.006z"/>
			<path style="fill:#FFAA00;" d="M63.283,155.788c-1.223-0.351-2.031-1.274-1.805-2.062c0.226-0.788,1.401-1.143,2.624-0.793
				s2.031,1.274,1.805,2.062C65.681,155.783,64.506,156.138,63.283,155.788z"/>
			<path style="fill:#FFAA00;" d="M58.135,159.806c-0.043-1.271-0.743-2.28-1.562-2.252c-0.82,0.028-1.449,1.081-1.406,2.353
				c0.043,1.271,0.743,2.28,1.562,2.252C57.549,162.131,58.179,161.078,58.135,159.806z"/>
			<path style="fill:#FFAA00;" d="M62.578,159.622c-0.998-0.896-1.339-2.145-0.761-2.788c0.578-0.643,1.856-0.438,2.854,0.458
				c0.998,0.896,1.339,2.145,0.761,2.788C64.854,160.723,63.577,160.518,62.578,159.622z"/>
			<path style="fill:#FFAA00;" d="M62.026,160.053c-0.627-1.186-1.756-1.819-2.52-1.415c-0.764,0.404-0.876,1.694-0.248,2.88
				c0.627,1.186,1.756,1.819,2.52,1.415C62.542,162.528,62.653,161.239,62.026,160.053z"/>
		</g>
		<g>
			<path style="fill:#FFAA00;" d="M216.435,69.048c2.838-2.768,0.992-6.112,1.326-11.02c0.49-7.201-3.162-9.671-6.129-8.139
				c-2.968,1.532-2.514,6.057-5.124,8.379c-0.008,0.007-0.016,0.014-0.024,0.021c-0.008,0.008-0.015,0.015-0.023,0.023
				c-2.518,2.422-6.994,1.618-8.752,4.458c-1.758,2.84,0.421,6.673,7.638,6.743C210.265,69.561,213.456,71.662,216.435,69.048z"/>
			<path style="fill:#FFAA00;" d="M225.45,64.71c-3.655-0.723-6.24-3.22-5.773-5.576c0.466-2.356,3.807-3.68,7.462-2.956
				c3.655,0.723,6.24,3.22,5.773,5.576C232.446,64.11,229.105,65.433,225.45,64.71z"/>
			<path style="fill:#FFAA00;" d="M211.41,77.698c-0.437-3.7-2.726-6.471-5.111-6.189c-2.385,0.282-3.964,3.51-3.527,7.21
				c0.437,3.7,2.726,6.471,5.111,6.189C210.269,84.626,211.848,81.398,211.41,77.698z"/>
			<path style="fill:#FFAA00;" d="M224.332,76.071c-3.133-2.372-4.433-5.932-2.904-7.951c1.529-2.02,5.308-1.734,8.441,0.638
				c3.133,2.372,4.433,5.932,2.904,7.951C231.243,78.729,227.464,78.443,224.332,76.071z"/>
			<path style="fill:#FFAA00;" d="M222.824,77.466c-2.121-3.308-5.569-4.88-7.702-3.512c-2.132,1.368-2.141,5.157-0.02,8.465
				c2.121,3.307,5.57,4.88,7.702,3.512S224.946,80.773,222.824,77.466z"/>
		</g>
		<g>
			<path style="fill:#FFAA00;" d="M341.669,54.396c-1.059-0.598-1.886,0.233-3.361,0.556c-2.164,0.474-2.578,1.762-1.871,2.505
				c0.706,0.743,2.001,0.22,2.909,0.79c0.003,0.002,0.006,0.004,0.009,0.005c0.003,0.002,0.006,0.003,0.009,0.005
				c0.93,0.534,1.078,1.922,2.065,2.196c0.988,0.274,1.93-0.697,1.331-2.83C342.35,56.17,342.695,55.049,341.669,54.396z"/>
			<path style="fill:#FFAA00;" d="M339.616,52.113c0.101,1.139-0.413,2.115-1.147,2.18c-0.734,0.065-1.411-0.806-1.512-1.945
				c-0.101-1.139,0.413-2.115,1.147-2.18C338.839,50.103,339.516,50.973,339.616,52.113z"/>
			<path style="fill:#FFAA00;" d="M344.649,55.133c-1.053,0.447-1.673,1.359-1.385,2.038c0.288,0.679,1.375,0.867,2.427,0.42
				c1.053-0.447,1.673-1.359,1.385-2.038S345.702,54.687,344.649,55.133z"/>
			<path style="fill:#FFAA00;" d="M343.06,51.466c-0.43,1.127-1.367,1.816-2.093,1.539c-0.726-0.277-0.967-1.415-0.537-2.542
				c0.43-1.127,1.367-1.816,2.093-1.538C343.249,49.201,343.49,50.339,343.06,51.466z"/>
			<path style="fill:#FFAA00;" d="M343.6,51.79c-0.792,0.909-0.959,2.06-0.373,2.571c0.586,0.511,1.703,0.188,2.496-0.721
				c0.792-0.909,0.959-2.06,0.373-2.571C345.51,50.558,344.392,50.881,343.6,51.79z"/>
		</g>
		<g>
			<path style="fill:#FFAA00;" d="M168.974,78.992c1.248-1.021,0.618-2.443,0.927-4.421c0.453-2.902-0.94-4.032-2.197-3.516
				c-1.257,0.516-1.233,2.367-2.374,3.216c-0.004,0.003-0.007,0.005-0.011,0.008c-0.003,0.003-0.007,0.006-0.01,0.008
				c-1.106,0.893-2.892,0.409-3.706,1.498c-0.813,1.089-0.066,2.72,2.858,3.004C166.454,78.982,167.674,79.946,168.974,78.992z"/>
			<path style="fill:#FFAA00;" d="M172.782,77.552c-1.456-0.423-2.416-1.526-2.143-2.465c0.273-0.939,1.674-1.357,3.13-0.934
				c1.456,0.423,2.416,1.526,2.143,2.465C175.639,77.556,174.238,77.975,172.782,77.552z"/>
			<path style="fill:#FFAA00;" d="M166.631,82.321c-0.046-1.515-0.876-2.72-1.853-2.69c-0.977,0.03-1.731,1.283-1.685,2.798
				c0.046,1.516,0.876,2.72,1.853,2.69C165.923,85.089,166.678,83.836,166.631,82.321z"/>
			<path style="fill:#FFAA00;" d="M171.927,82.118c-1.186-1.072-1.587-2.561-0.896-3.326c0.691-0.765,2.213-0.515,3.399,0.557
				c1.186,1.072,1.587,2.562,0.896,3.326C174.635,83.44,173.113,83.191,171.927,82.118z"/>
			<path style="fill:#FFAA00;" d="M171.266,82.63c-0.743-1.416-2.085-2.175-2.998-1.696c-0.913,0.479-1.05,2.015-0.307,3.431
				c0.743,1.416,2.085,2.175,2.998,1.696C171.872,85.582,172.01,84.046,171.266,82.63z"/>
		</g>
		<g>
			<path style="fill:#FFAA00;" d="M201.025,118.323c0.643,0.972,1.711,0.624,3.111,0.991c2.053,0.539,2.968-0.38,2.689-1.322
				c-0.279-0.942-1.611-1.06-2.138-1.943c-0.002-0.003-0.003-0.006-0.005-0.008c-0.002-0.003-0.003-0.005-0.005-0.008
				c-0.561-0.861-0.082-2.11-0.805-2.774c-0.723-0.665-1.951-0.247-2.37,1.835C201.217,116.512,200.435,117.318,201.025,118.323z"/>
			<path style="fill:#FFAA00;" d="M201.782,121.167c0.411-1.016,1.275-1.625,1.93-1.36c0.655,0.265,0.853,1.303,0.443,2.319
				c-0.411,1.016-1.275,1.625-1.93,1.36C201.569,123.221,201.371,122.183,201.782,121.167z"/>
			<path style="fill:#FFAA00;" d="M198.804,116.395c1.093,0.078,2.02-0.431,2.07-1.135c0.05-0.705-0.795-1.339-1.889-1.417
				c-1.093-0.078-2.02,0.431-2.07,1.135C196.865,115.683,197.71,116.317,198.804,116.395z"/>
			<path style="fill:#FFAA00;" d="M198.561,120.217c0.858-0.774,1.958-0.954,2.457-0.4c0.499,0.553,0.208,1.629-0.65,2.403
				c-0.858,0.774-1.958,0.954-2.457,0.4C197.412,122.068,197.703,120.992,198.561,120.217z"/>
			<path style="fill:#FFAA00;" d="M198.241,119.705c1.073-0.43,1.717-1.34,1.44-2.031c-0.277-0.691-1.372-0.903-2.444-0.473
				c-1.073,0.43-1.717,1.34-1.44,2.031C196.074,119.924,197.169,120.135,198.241,119.705z"/>
		</g>
		<g>
			<path style="fill:#FFAA00;" d="M410.214,102.633c1.304-3.678-1.781-5.83-3.618-10.311c-2.696-6.574-6.996-7.169-8.952-4.525
				c-1.955,2.644,0.412,6.443-0.885,9.629c-0.004,0.01-0.008,0.02-0.012,0.03c-0.004,0.01-0.007,0.02-0.011,0.03
				c-1.171,3.234-5.475,4.469-5.794,7.741c-0.319,3.273,3.272,5.712,9.678,2.637C404.987,105.769,408.718,106.237,410.214,102.633z"
				/>
			<path style="fill:#FFAA00;" d="M416.292,94.883c-3.543,0.949-6.911-0.133-7.523-2.417c-0.612-2.284,1.764-4.905,5.307-5.855
				c3.543-0.949,6.911,0.133,7.523,2.417C422.211,91.313,419.835,93.934,416.292,94.883z"/>
			<path style="fill:#FFAA00;" d="M409.535,112.458c-1.995-3.078-5.22-4.532-7.205-3.246c-1.985,1.286-1.977,4.824,0.018,7.902
				c1.995,3.078,5.22,4.531,7.205,3.246C411.537,119.074,411.529,115.536,409.535,112.458z"/>
			<path style="fill:#FFAA00;" d="M420.242,105.406c-3.798-0.734-6.494-3.313-6.021-5.762c0.473-2.449,3.935-3.839,7.733-3.105
				c3.798,0.734,6.494,3.313,6.021,5.762C427.502,104.749,424.04,106.139,420.242,105.406z"/>
			<path style="fill:#FFAA00;" d="M419.516,107.292c-3.311-2-7.041-1.89-8.33,0.244c-1.289,2.135,0.35,5.486,3.661,7.486
				c3.311,2,7.041,1.89,8.33-0.244C424.467,112.643,422.828,109.292,419.516,107.292z"/>
		</g>
		<g>
			<path style="fill:#FFAA00;" d="M363.314,21.25c0.225-1.061-0.703-1.542-1.372-2.709c-0.982-1.713-2.189-1.72-2.631-0.921
				c-0.443,0.799,0.348,1.76,0.107,2.685c-0.001,0.003-0.001,0.006-0.002,0.009c-0.001,0.003-0.001,0.006-0.002,0.009
				c-0.205,0.934-1.346,1.431-1.315,2.344s1.109,1.455,2.762,0.374C361.988,22.304,363.033,22.297,363.314,21.25z"/>
			<path style="fill:#FFAA00;" d="M364.707,18.893c-0.942,0.391-1.909,0.215-2.161-0.392c-0.252-0.607,0.308-1.416,1.249-1.806
				c0.942-0.391,1.909-0.215,2.161,0.392C366.207,17.694,365.648,18.503,364.707,18.893z"/>
			<path style="fill:#FFAA00;" d="M363.484,23.981c-0.661-0.775-1.603-1.059-2.103-0.632s-0.369,1.401,0.293,2.177
				c0.661,0.776,1.603,1.059,2.103,0.632C364.277,25.731,364.146,24.757,363.484,23.981z"/>
			<path style="fill:#FFAA00;" d="M366.178,21.648c-1.073-0.064-1.91-0.676-1.868-1.368c0.041-0.692,0.945-1.201,2.018-1.137
				s1.91,0.676,1.868,1.368C368.154,21.203,367.251,21.712,366.178,21.648z"/>
			<path style="fill:#FFAA00;" d="M366.047,22.195c-0.985-0.43-2.009-0.264-2.286,0.371c-0.277,0.635,0.296,1.499,1.281,1.929
				c0.985,0.43,2.009,0.264,2.286-0.371C367.605,23.489,367.032,22.625,366.047,22.195z"/>
		</g>
		<g>
			<path style="fill:#FFAA00;" d="M302.744,85.092c1.46-2.088-0.106-3.979-0.484-7.118c-0.553-4.606-3.156-5.728-4.846-4.405
				c-1.69,1.323-0.861,4.127-2.232,5.906c-0.004,0.006-0.009,0.011-0.013,0.016c-0.004,0.006-0.008,0.011-0.012,0.017
				c-1.299,1.831-4.223,1.86-4.993,3.864c-0.77,2.004,1.065,4.163,5.632,3.343C298.909,86.156,301.176,87.1,302.744,85.092z"/>
			<path style="fill:#FFAA00;" d="M307.917,81.272c-2.395-0.019-4.326-1.286-4.314-2.83c0.012-1.544,1.964-2.78,4.358-2.761
				c2.395,0.019,4.326,1.286,4.314,2.83C312.263,80.055,310.311,81.291,307.917,81.272z"/>
			<path style="fill:#FFAA00;" d="M300.607,91.157c-0.72-2.284-2.497-3.76-3.969-3.296c-1.473,0.464-2.083,2.692-1.363,4.976
				c0.72,2.284,2.497,3.76,3.969,3.296C300.717,95.669,301.327,93.441,300.607,91.157z"/>
			<path style="fill:#FFAA00;" d="M308.572,88.581c-2.263-1.122-3.51-3.215-2.787-4.673c0.724-1.459,3.144-1.731,5.407-0.609
				c2.263,1.122,3.51,3.215,2.787,4.673C313.256,89.431,310.835,89.703,308.572,88.581z"/>
			<path style="fill:#FFAA00;" d="M307.788,89.642c-1.736-1.834-4.102-2.414-5.285-1.295c-1.183,1.119-0.734,3.514,1.002,5.348
				c1.736,1.835,4.102,2.414,5.285,1.295C309.972,93.871,309.524,91.477,307.788,89.642z"/>
		</g>
		<g>
			<path style="fill:#FFAA00;" d="M369.86,261.353c0.933-1.512-0.233-2.765-0.621-4.936c-0.569-3.184-2.426-3.861-3.55-2.872
				c-1.124,0.989-0.435,2.907-1.317,4.2c-0.003,0.004-0.006,0.008-0.008,0.012c-0.003,0.004-0.005,0.008-0.008,0.012
				c-0.831,1.327-2.865,1.464-3.321,2.889c-0.456,1.426,0.908,2.856,4.054,2.102C367.233,262.247,368.849,262.814,369.86,261.353z"
				/>
			<path style="fill:#FFAA00;" d="M373.308,258.487c-1.668,0.083-3.063-0.722-3.116-1.797c-0.053-1.075,1.255-2.014,2.923-2.097
				c1.668-0.083,3.063,0.722,3.116,1.797C376.285,257.466,374.976,258.405,373.308,258.487z"/>
			<path style="fill:#FFAA00;" d="M368.616,265.66c-0.592-1.561-1.888-2.517-2.895-2.135s-1.342,1.957-0.75,3.518
				c0.592,1.561,1.889,2.517,2.895,2.135S369.208,267.222,368.616,265.66z"/>
			<path style="fill:#FFAA00;" d="M374.057,263.549c-1.62-0.691-2.572-2.097-2.127-3.142c0.445-1.044,2.12-1.331,3.739-0.64
				c1.62,0.691,2.572,2.097,2.127,3.142C377.351,263.953,375.677,264.24,374.057,263.549z"/>
			<path style="fill:#FFAA00;" d="M373.553,264.319c-1.282-1.208-2.952-1.517-3.73-0.69c-0.778,0.826-0.37,2.475,0.911,3.683
				c1.282,1.207,2.952,1.516,3.73,0.69C375.243,267.175,374.835,265.526,373.553,264.319z"/>
		</g>
		<g>
			<path style="fill:#FFAA00;" d="M93.045,187.778c-2.115-0.594-3.207,1.22-5.655,2.421c-3.591,1.762-3.762,4.2-2.204,5.198
				c1.558,0.999,3.603-0.475,5.441,0.134c0.006,0.002,0.011,0.004,0.017,0.006c0.006,0.002,0.012,0.003,0.017,0.005
				c1.86,0.536,2.716,2.906,4.566,2.962s3.085-2.053,1.116-5.535C95.003,190.596,95.125,188.482,93.045,187.778z"/>
			<path style="fill:#FFAA00;" d="M88.463,184.657c0.667,1.954,0.186,3.887-1.074,4.317c-1.26,0.43-2.822-0.806-3.488-2.76
				c-0.667-1.954-0.186-3.887,1.074-4.317C86.234,181.467,87.796,182.703,88.463,184.657z"/>
			<path style="fill:#FFAA00;" d="M98.589,187.789c-1.654,1.236-2.348,3.103-1.551,4.169c0.797,1.066,2.784,0.928,4.438-0.308
				c1.654-1.236,2.348-3.103,1.551-4.169C102.229,186.415,100.242,186.553,98.589,187.789z"/>
			<path style="fill:#FFAA00;" d="M94.224,182.042c-0.269,2.161-1.616,3.772-3.009,3.599c-1.393-0.173-2.304-2.065-2.036-4.226
				c0.269-2.161,1.616-3.772,3.009-3.599C93.581,177.988,94.493,179.881,94.224,182.042z"/>
			<path style="fill:#FFAA00;" d="M95.311,182.378c-0.998,1.935-0.796,4.026,0.451,4.669c1.248,0.644,3.068-0.404,4.066-2.339
				c0.998-1.935,0.796-4.026-0.451-4.669C98.13,179.395,96.309,180.443,95.311,182.378z"/>
		</g>
		<g>
			<path style="fill:#FFAA00;" d="M279.599,267.933c1.79-1.773,0.6-3.889,0.788-7.01c0.276-4.579-2.058-6.13-3.936-5.142
				c-1.878,0.989-1.567,3.862-3.215,5.351c-0.005,0.005-0.01,0.009-0.015,0.014c-0.005,0.005-0.01,0.01-0.015,0.014
				c-1.588,1.552-4.437,1.063-5.54,2.877c-1.103,1.813,0.301,4.239,4.888,4.247C275.68,268.29,277.718,269.609,279.599,267.933z"/>
			<path style="fill:#FFAA00;" d="M285.306,265.131c-2.326-0.442-3.982-2.015-3.697-3.515c0.285-1.5,2.401-2.358,4.728-1.916
				c2.327,0.442,3.982,2.015,3.697,3.515C289.749,264.715,287.633,265.573,285.306,265.131z"/>
			<path style="fill:#FFAA00;" d="M276.448,273.456c-0.296-2.349-1.764-4.099-3.279-3.908c-1.515,0.191-2.502,2.251-2.206,4.6
				c0.296,2.349,1.764,4.099,3.279,3.908C275.757,277.865,276.745,275.805,276.448,273.456z"/>
			<path style="fill:#FFAA00;" d="M284.652,272.358c-2.003-1.492-2.847-3.748-1.885-5.039c0.962-1.291,3.365-1.128,5.368,0.363
				c2.003,1.492,2.847,3.748,1.885,5.039C289.058,274.012,286.655,273.849,284.652,272.358z"/>
			<path style="fill:#FFAA00;" d="M283.701,273.251c-1.365-2.092-3.564-3.074-4.912-2.194c-1.348,0.88-1.335,3.288,0.03,5.38
				c1.365,2.091,3.564,3.074,4.912,2.194C285.079,277.751,285.066,275.343,283.701,273.251z"/>
		</g>
		<g>
			<path style="fill:#FFAA00;" d="M54.498,209.256c-2.973,1.285-2.539,4.376-4.226,8.024c-2.475,5.353-0.408,8.303,2.304,7.999
				c2.712-0.304,3.685-3.89,6.355-4.9c0.008-0.003,0.017-0.006,0.025-0.009c0.008-0.003,0.016-0.007,0.024-0.01
				c2.628-1.114,5.81,0.805,7.98-0.85c2.17-1.654,1.625-5.215-3.862-7.374C59.357,210.664,57.534,208.13,54.498,209.256z"/>
			<path style="fill:#FFAA00;" d="M46.353,209.938c2.578,1.618,3.823,4.278,2.78,5.94c-1.043,1.662-3.979,1.698-6.558,0.08
				c-2.578-1.618-3.823-4.278-2.78-5.94C40.838,208.355,43.774,208.32,46.353,209.938z"/>
			<path style="fill:#FFAA00;" d="M60.856,204.12c-0.745,2.951,0.193,5.734,2.096,6.214c1.903,0.48,4.05-1.523,4.795-4.474
				c0.745-2.952-0.193-5.734-2.096-6.214C63.748,199.166,61.601,201.169,60.856,204.12z"/>
			<path style="fill:#FFAA00;" d="M50.52,201.593c1.699,2.724,1.653,5.82-0.103,6.915c-1.756,1.095-4.557-0.225-6.256-2.949
				c-1.699-2.724-1.653-5.82,0.103-6.915C46.02,197.549,48.821,198.869,50.52,201.593z"/>
			<path style="fill:#FFAA00;" d="M52.077,200.968c0.654,3.143,2.827,5.349,4.853,4.927c2.026-0.422,3.138-3.312,2.484-6.455
				c-0.654-3.143-2.827-5.349-4.854-4.927C52.535,194.936,51.422,197.825,52.077,200.968z"/>
		</g>
		<g>
			<path style="fill:#FFAA00;" d="M130.414,165.123c-1.679,1.206-0.988,3.074-1.542,5.578c-0.814,3.674,0.876,5.232,2.526,4.674
				c1.65-0.559,1.768-2.927,3.295-3.921c0.005-0.003,0.009-0.006,0.014-0.009c0.005-0.003,0.009-0.007,0.014-0.01
				c1.487-1.053,3.732-0.289,4.86-1.616c1.128-1.327,0.303-3.473-3.412-4.072C133.635,165.339,132.154,164.008,130.414,165.123z"/>
			<path style="fill:#FFAA00;" d="M125.429,166.657c1.828,0.658,2.966,2.146,2.542,3.325c-0.424,1.178-2.25,1.6-4.078,0.943
				c-1.828-0.658-2.966-2.146-2.542-3.325C121.775,166.421,123.601,165.999,125.429,166.657z"/>
			<path style="fill:#FFAA00;" d="M133.679,161.055c-0.063,1.942,0.901,3.549,2.153,3.589c1.252,0.04,2.318-1.501,2.38-3.443
				c0.063-1.942-0.901-3.549-2.153-3.589C134.808,157.572,133.742,159.113,133.679,161.055z"/>
			<path style="fill:#FFAA00;" d="M126.891,160.887c1.43,1.467,1.823,3.404,0.877,4.326c-0.946,0.922-2.872,0.48-4.302-0.987
				c-1.43-1.467-1.823-3.404-0.877-4.326C123.534,158.978,125.46,159.42,126.891,160.887z"/>
			<path style="fill:#FFAA00;" d="M127.776,160.285c0.836,1.871,2.491,2.95,3.697,2.411c1.206-0.539,1.506-2.492,0.67-4.363
				c-0.836-1.871-2.491-2.95-3.697-2.411C127.24,156.462,126.94,158.415,127.776,160.285z"/>
		</g>
		<g>
			<path style="fill:#FFAA00;" d="M290.645,135.355c2.028-3.034-0.272-5.694-0.907-10.179c-0.931-6.58-4.692-8.108-7.073-6.162
				c-2.381,1.946-1.109,5.936-3.018,8.524c-0.006,0.008-0.012,0.016-0.018,0.024c-0.006,0.008-0.011,0.017-0.017,0.025
				c-1.806,2.662-5.991,2.791-7.034,5.684c-1.043,2.893,1.651,5.93,8.165,4.618C285.184,136.994,288.459,138.278,290.645,135.355z"
				/>
			<path style="fill:#FFAA00;" d="M297.937,129.729c-3.43,0.045-6.234-1.711-6.263-3.922c-0.029-2.211,2.728-4.041,6.158-4.086
				c3.43-0.045,6.234,1.711,6.263,3.923C304.125,127.855,301.367,129.684,297.937,129.729z"/>
			<path style="fill:#FFAA00;" d="M287.767,144.105c-1.099-3.25-3.689-5.309-5.784-4.601c-2.095,0.709-2.902,3.917-1.803,7.167
				c1.099,3.25,3.689,5.309,5.784,4.601C288.059,150.563,288.866,147.354,287.767,144.105z"/>
			<path style="fill:#FFAA00;" d="M299.096,140.176c-3.274-1.539-5.123-4.498-4.131-6.609c0.992-2.111,4.451-2.574,7.725-1.034
				c3.274,1.539,5.123,4.498,4.131,6.609C305.828,141.253,302.37,141.716,299.096,140.176z"/>
			<path style="fill:#FFAA00;" d="M298.004,141.72c-2.541-2.575-5.947-3.334-7.607-1.696c-1.66,1.638-0.945,5.054,1.596,7.628
				c2.541,2.575,5.947,3.334,7.607,1.696C301.26,147.71,300.545,144.294,298.004,141.72z"/>
		</g>
		<g>
			<path style="fill:#AF6AE3;" d="M260.542,71.083c1.081,0.776,2.078-0.03,3.72-0.207c2.408-0.259,3.011-1.611,2.331-2.502
				c-0.68-0.891-2.149-0.476-3.069-1.203c-0.003-0.002-0.006-0.005-0.008-0.007c-0.003-0.002-0.006-0.004-0.009-0.006
				c-0.948-0.69-0.944-2.217-1.985-2.631c-1.041-0.415-2.181,0.529-1.781,2.919C260.011,69.074,259.503,70.251,260.542,71.083z"/>
			<path style="fill:#AF6AE3;" d="M262.503,73.808c0.025-1.25,0.699-2.251,1.505-2.234c0.806,0.016,1.439,1.043,1.414,2.293
				c-0.025,1.25-0.699,2.25-1.505,2.234C263.11,76.085,262.477,75.059,262.503,73.808z"/>
			<path style="fill:#AF6AE3;" d="M257.389,69.929c1.197-0.361,1.979-1.279,1.746-2.051c-0.233-0.772-1.392-1.105-2.589-0.744
				s-1.979,1.28-1.746,2.051C255.032,69.957,256.192,70.29,257.389,69.929z"/>
			<path style="fill:#AF6AE3;" d="M258.682,74.104c0.6-1.174,1.701-1.812,2.458-1.425c0.757,0.387,0.884,1.653,0.283,2.827
				c-0.601,1.174-1.701,1.812-2.458,1.425C258.209,76.543,258.082,75.278,258.682,74.104z"/>
			<path style="fill:#AF6AE3;" d="M258.133,73.687c0.969-0.895,1.287-2.126,0.71-2.751c-0.577-0.625-1.83-0.406-2.799,0.489
				c-0.969,0.895-1.287,2.126-0.71,2.751C255.911,74.801,257.164,74.582,258.133,73.687z"/>
		</g>
		<g>
			<path style="fill:#AF6AE3;" d="M232.374,160.18c-1.983,0.749-1.794,2.783-3.008,5.116c-1.781,3.423-0.52,5.415,1.262,5.299
				c1.782-0.116,2.528-2.43,4.304-3.009c0.006-0.002,0.011-0.003,0.017-0.005c0.005-0.002,0.011-0.004,0.016-0.006
				c1.752-0.648,3.773,0.704,5.242-0.311c1.469-1.015,1.222-3.36-2.299-4.939C235.508,161.249,234.394,159.537,232.374,160.18z"/>
			
				<ellipse transform="matrix(0.5706 -0.8212 0.8212 0.5706 -36.3573 255.0394)" style="fill:#AF6AE3;" cx="225.703" cy="162.286" rx="2.325" ry="3.607"/>
			<path style="fill:#AF6AE3;" d="M236.688,157.017c-0.578,1.907-0.049,3.754,1.18,4.126c1.229,0.372,2.694-0.872,3.271-2.778
				c0.578-1.907,0.049-3.754-1.18-4.126C238.73,153.867,237.265,155.111,236.688,157.017z"/>
			<path style="fill:#AF6AE3;" d="M230.009,155.049c1.027,1.833,0.902,3.855-0.279,4.517c-1.181,0.662-2.972-0.286-3.999-2.119
				c-1.027-1.833-0.902-3.855,0.279-4.517C227.191,152.268,228.981,153.216,230.009,155.049z"/>
			<path style="fill:#AF6AE3;" d="M231.046,154.688c0.332,2.074,1.685,3.583,3.022,3.369c1.337-0.214,2.153-2.069,1.821-4.143
				c-0.331-2.075-1.685-3.583-3.022-3.369C231.529,150.759,230.714,152.614,231.046,154.688z"/>
		</g>
		<g>
			<path style="fill:#AF6AE3;" d="M411.78,161.453c-0.069-4.137-3.931-5.13-7.419-8.899c-5.117-5.529-9.608-4.525-10.57-1.174
				c-0.962,3.351,2.8,6.247,2.693,9.892c0,0.011-0.001,0.023-0.001,0.034c0,0.011,0,0.023,0,0.034
				c0.036,3.646-3.78,6.469-2.883,9.838c0.897,3.369,5.368,4.459,10.59-0.971C407.751,166.506,411.632,165.587,411.78,161.453z"/>
			<path style="fill:#AF6AE3;" d="M414.942,151.501c-3.167,2.257-6.914,2.432-8.369,0.39c-1.455-2.042-0.068-5.527,3.099-7.784
				c3.167-2.257,6.914-2.432,8.369-0.39C419.497,145.759,418.109,149.244,414.942,151.501z"/>
			<path style="fill:#AF6AE3;" d="M414.75,171.463c-3.123-2.318-6.866-2.564-8.36-0.551c-1.494,2.013-0.174,5.524,2.949,7.842
				c3.123,2.318,6.866,2.564,8.36,0.551C419.194,177.292,417.873,173.781,414.75,171.463z"/>
			<path style="fill:#AF6AE3;" d="M422.769,160.487c-4.044,0.68-7.679-0.882-8.117-3.49c-0.438-2.607,2.485-5.272,6.529-5.953
				c4.044-0.68,7.679,0.882,8.117,3.49C429.736,157.142,426.813,159.807,422.769,160.487z"/>
			<path style="fill:#AF6AE3;" d="M422.748,162.63c-4.031-0.758-7.694,0.734-8.183,3.333c-0.489,2.598,2.383,5.319,6.414,6.077
				c4.031,0.758,7.694-0.734,8.183-3.333C429.65,166.109,426.779,163.388,422.748,162.63z"/>
		</g>
		<g>
			<path style="fill:#AF6AE3;" d="M409.453,24.019c-0.924-0.881-1.979-0.247-3.562-0.297c-2.323-0.073-3.075,1.131-2.547,2.068
				c0.528,0.937,1.979,0.738,2.757,1.551c0.003,0.003,0.005,0.005,0.007,0.008c0.003,0.002,0.005,0.005,0.008,0.007
				c0.809,0.782,0.603,2.232,1.537,2.764c0.934,0.533,2.142-0.213,2.08-2.537C409.691,25.999,410.329,24.948,409.453,24.019z"/>
			<path style="fill:#AF6AE3;" d="M407.951,21.169c-0.19,1.185-0.963,2.046-1.727,1.923c-0.764-0.122-1.229-1.182-1.039-2.367
				c0.19-1.185,0.963-2.046,1.727-1.923C407.676,18.925,408.141,19.985,407.951,21.169z"/>
			<path style="fill:#AF6AE3;" d="M412.296,25.535c-1.186,0.184-2.051,0.953-1.932,1.717c0.119,0.764,1.176,1.235,2.362,1.051
				c1.186-0.184,2.051-0.953,1.932-1.717C414.539,25.821,413.481,25.351,412.296,25.535z"/>
			<path style="fill:#AF6AE3;" d="M411.621,21.396c-0.727,1.036-1.857,1.496-2.525,1.028c-0.668-0.468-0.62-1.688,0.106-2.724
				c0.727-1.036,1.857-1.496,2.525-1.028C412.395,19.14,412.347,20.36,411.621,21.396z"/>
			<path style="fill:#AF6AE3;" d="M412.087,21.865c-1.039,0.722-1.505,1.85-1.04,2.52c0.465,0.67,1.685,0.628,2.724-0.093
				c1.04-0.722,1.505-1.85,1.04-2.52C414.346,21.102,413.127,21.143,412.087,21.865z"/>
		</g>
		<g>
			<path style="fill:#AF6AE3;" d="M295.192,223.858c-0.256-3.484-3.558-4.137-6.678-7.148c-4.577-4.417-8.315-3.357-8.966-0.486
				c-0.651,2.87,2.658,5.132,2.742,8.21c0,0.01,0,0.019,0.001,0.029c0.001,0.01,0.001,0.019,0.002,0.029
				c0.204,3.072-2.878,5.634-1.961,8.431c0.917,2.797,4.738,3.503,8.881-1.323C292.036,228.31,295.263,227.351,295.192,223.858z"/>
			<path style="fill:#AF6AE3;" d="M297.383,215.319c-2.562,2.054-5.712,2.38-7.036,0.728c-1.324-1.652-0.32-4.655,2.242-6.709
				c2.562-2.054,5.712-2.38,7.036-0.728C300.948,210.262,299.945,213.265,297.383,215.319z"/>
			<path style="fill:#AF6AE3;" d="M298.172,232.155c-2.743-1.805-5.91-1.835-7.073-0.066c-1.164,1.768,0.117,4.665,2.86,6.47
				c2.743,1.805,5.91,1.835,7.073,0.066S300.915,233.96,298.172,232.155z"/>
			<path style="fill:#AF6AE3;" d="M304.408,222.521c-3.377,0.766-6.515-0.378-7.009-2.555c-0.494-2.177,1.843-4.563,5.22-5.329
				c3.377-0.766,6.515,0.378,7.009,2.555C310.122,219.369,307.785,221.755,304.408,222.521z"/>
			<path style="fill:#AF6AE3;" d="M304.493,224.328c-3.434-0.447-6.451,0.986-6.739,3.199s2.262,4.37,5.696,4.817
				c3.434,0.447,6.451-0.986,6.739-3.199C310.477,226.932,307.927,224.775,304.493,224.328z"/>
		</g>
		<g>
			<path style="fill:#AF6AE3;" d="M26.662,24.577c-1.713-0.241-2.375,1.289-4.16,2.484c-2.618,1.753-2.496,3.674-1.174,4.29
				c1.321,0.616,2.763-0.749,4.262-0.468c0.005,0.001,0.009,0.002,0.014,0.003c0.005,0.001,0.009,0.001,0.014,0.002
				c1.509,0.223,2.426,1.983,3.876,1.832c1.45-0.151,2.192-1.927,0.289-4.438C28.487,26.571,28.36,24.909,26.662,24.577z"/>
			<path style="fill:#AF6AE3;" d="M22.757,22.623c0.726,1.455,0.554,3.014-0.384,3.483c-0.938,0.468-2.287-0.332-3.013-1.788
				c-0.726-1.455-0.554-3.014,0.384-3.483S22.031,21.167,22.757,22.623z"/>
			<path style="fill:#AF6AE3;" d="M30.991,24.003c-1.161,1.139-1.507,2.669-0.773,3.417c0.734,0.749,2.271,0.432,3.432-0.707
				c1.161-1.139,1.507-2.669,0.773-3.417S32.152,22.865,30.991,24.003z"/>
			<path style="fill:#AF6AE3;" d="M26.979,19.976c0.017,1.715-0.865,3.114-1.971,3.126c-1.106,0.011-2.016-1.37-2.033-3.085
				c-0.017-1.715,0.865-3.114,1.971-3.126C26.052,16.879,26.962,18.261,26.979,19.976z"/>
			<path style="fill:#AF6AE3;" d="M27.863,20.124c-0.576,1.616-0.198,3.226,0.843,3.597c1.042,0.371,2.353-0.638,2.928-2.253
				c0.576-1.616,0.198-3.226-0.843-3.597C29.75,17.5,28.439,18.508,27.863,20.124z"/>
		</g>
		<g>
			<path style="fill:#AF6AE3;" d="M72.409,28.517c-0.565,1.309,0.507,2.168,1.068,3.846c0.823,2.462,2.375,2.783,3.152,1.867
				c0.777-0.916,0.007-2.358,0.557-3.488c0.002-0.003,0.003-0.007,0.005-0.01c0.002-0.004,0.003-0.007,0.005-0.011
				c0.506-1.15,2.104-1.495,2.3-2.68c0.196-1.185-1.053-2.161-3.463-1.197C74.391,27.502,73.042,27.24,72.409,28.517z"/>
			<path style="fill:#AF6AE3;" d="M70.005,31.194c1.314-0.26,2.516,0.217,2.683,1.064c0.167,0.847-0.762,1.745-2.077,2.005
				c-1.314,0.26-2.516-0.217-2.683-1.064C67.761,32.351,68.691,31.453,70.005,31.194z"/>
			<path style="fill:#AF6AE3;" d="M72.896,24.953c0.652,1.171,1.792,1.779,2.547,1.358c0.755-0.42,0.838-1.71,0.186-2.88
				c-0.652-1.171-1.792-1.779-2.547-1.358C72.327,22.493,72.244,23.782,72.896,24.953z"/>
			<path style="fill:#AF6AE3;" d="M68.822,27.262c1.366,0.36,2.286,1.366,2.054,2.247c-0.232,0.881-1.528,1.303-2.894,0.943
				c-1.366-0.36-2.286-1.366-2.054-2.247C66.16,27.325,67.456,26.902,68.822,27.262z"/>
			<path style="fill:#AF6AE3;" d="M69.132,26.592c1.158,0.809,2.52,0.861,3.042,0.114c0.522-0.747,0.006-2.008-1.152-2.818
				c-1.158-0.809-2.52-0.861-3.042-0.114C67.458,24.521,67.974,25.783,69.132,26.592z"/>
		</g>
		<g>
			<path style="fill:#AF6AE3;" d="M165.243,29.787c3.944,1.245,6.109-2.101,10.787-4.214c6.863-3.099,7.334-7.675,4.462-9.648
				c-2.872-1.973-6.809,0.675-10.231-0.581c-0.011-0.004-0.021-0.008-0.032-0.012c-0.011-0.003-0.022-0.007-0.032-0.01
				c-3.469-1.121-4.936-5.633-8.413-5.85c-3.478-0.217-5.928,3.676-2.435,10.347C161.729,24.366,161.37,28.336,165.243,29.787z"/>
			<path style="fill:#AF6AE3;" d="M173.675,35.937c-1.136-3.717-0.115-7.325,2.282-8.058c2.397-0.733,5.261,1.687,6.397,5.405
				c1.137,3.717,0.115,7.325-2.282,8.058C177.676,42.074,174.811,39.655,173.675,35.937z"/>
			<path style="fill:#AF6AE3;" d="M154.812,29.43c3.187-2.226,4.607-5.696,3.171-7.751s-5.182-1.915-8.369,0.311
				c-3.187,2.226-4.607,5.696-3.171,7.751C147.878,31.796,151.625,31.657,154.812,29.43z"/>
			<path style="fill:#AF6AE3;" d="M162.677,40.51c0.637-4.05,3.269-7,5.88-6.59s4.211,4.026,3.574,8.076
				c-0.637,4.05-3.269,7-5.88,6.59C163.641,48.175,162.04,44.56,162.677,40.51z"/>
			<path style="fill:#AF6AE3;" d="M160.652,39.811c1.995-3.581,1.742-7.527-0.567-8.813c-2.309-1.286-5.798,0.574-7.793,4.155
				c-1.995,3.581-1.742,7.527,0.567,8.813C155.167,45.252,158.656,43.392,160.652,39.811z"/>
		</g>
		<g>
			<path style="fill:#AF6AE3;" d="M341.511,220.057c-1.892-0.415-2.762,1.238-4.855,2.421c-3.071,1.735-3.098,3.89-1.675,4.69
				c1.423,0.8,3.148-0.602,4.798-0.16c0.005,0.001,0.01,0.003,0.015,0.004c0.005,0.001,0.01,0.002,0.016,0.003
				c1.665,0.377,2.54,2.42,4.172,2.375c1.632-0.045,2.611-1.965,0.7-4.93C343.379,222.437,343.379,220.57,341.511,220.057z"/>
			<path style="fill:#AF6AE3;" d="M337.317,217.543c0.687,1.686,0.363,3.413-0.725,3.856c-1.087,0.443-2.526-0.565-3.213-2.252
				c-0.687-1.686-0.363-3.413,0.725-3.856C335.192,214.848,336.63,215.856,337.317,217.543z"/>
			<path style="fill:#AF6AE3;" d="M346.393,219.783c-1.393,1.173-1.909,2.852-1.153,3.75c0.756,0.898,2.499,0.675,3.892-0.498
				c1.393-1.173,1.909-2.852,1.153-3.75C349.528,218.387,347.786,218.61,346.393,219.783z"/>
			<path style="fill:#AF6AE3;" d="M342.256,214.945c-0.126,1.916-1.23,3.404-2.465,3.322c-1.235-0.081-2.135-1.701-2.008-3.617
				c0.126-1.916,1.23-3.404,2.466-3.322C341.483,211.409,342.382,213.029,342.256,214.945z"/>
			<path style="fill:#AF6AE3;" d="M343.23,215.186c-0.78,1.755-0.495,3.585,0.636,4.088c1.131,0.503,2.681-0.512,3.461-2.267
				c0.78-1.755,0.495-3.585-0.636-4.088C345.56,212.416,344.01,213.431,343.23,215.186z"/>
		</g>
		<g>
			<path style="fill:#AF6AE3;" d="M19.821,170.789c2.225,2.076,4.723,0.54,8.499,0.619c5.54,0.116,7.302-2.774,6.02-4.994
				c-1.282-2.22-4.736-1.709-6.611-3.627c-0.006-0.006-0.012-0.012-0.017-0.018c-0.006-0.006-0.012-0.011-0.018-0.017
				c-1.948-1.843-1.493-5.305-3.734-6.551c-2.241-1.246-5.102,0.563-4.895,6.1C19.205,166.075,17.709,168.598,19.821,170.789z"/>
			<path style="fill:#AF6AE3;" d="M23.473,177.545c0.423-2.829,2.244-4.901,4.068-4.629c1.824,0.273,2.959,2.787,2.537,5.616
				c-0.423,2.829-2.244,4.901-4.068,4.629C24.186,182.888,23.05,180.374,23.473,177.545z"/>
			<path style="fill:#AF6AE3;" d="M13.006,167.247c2.822-0.469,4.864-2.324,4.562-4.143c-0.302-1.819-2.835-2.913-5.657-2.445
				c-2.822,0.469-4.864,2.324-4.562,4.143C7.652,166.622,10.185,167.717,13.006,167.247z"/>
			<path style="fill:#AF6AE3;" d="M14.72,177.097c1.706-2.488,4.389-3.613,5.993-2.514c1.604,1.1,1.521,4.008-0.184,6.496
				c-1.706,2.488-4.389,3.613-5.993,2.514C12.932,182.494,13.014,179.585,14.72,177.097z"/>
			<path style="fill:#AF6AE3;" d="M13.597,175.992c2.46-1.746,3.541-4.447,2.415-6.033c-1.126-1.586-4.032-1.456-6.492,0.29
				c-2.46,1.746-3.541,4.447-2.416,6.033C8.23,177.868,11.137,177.738,13.597,175.992z"/>
		</g>
		<g>
			<path style="fill:#AF6AE3;" d="M249.467,116.016c-1.42-2.524-4.129-1.85-7.532-3.009c-4.992-1.701-7.423,0.414-6.899,2.797
				c0.524,2.384,3.805,2.914,4.953,5.194c0.003,0.007,0.007,0.014,0.011,0.021c0.004,0.007,0.008,0.014,0.012,0.021
				c1.237,2.233-0.173,5.243,1.502,7.018s4.791,0.958,6.198-4.125C248.67,120.469,250.753,118.611,249.467,116.016z"/>
			<path style="fill:#AF6AE3;" d="M248.1,108.835c-1.198,2.445-3.447,3.8-5.023,3.028c-1.576-0.772-1.882-3.381-0.684-5.825
				c1.198-2.445,3.447-3.8,5.023-3.028C248.992,103.782,249.298,106.39,248.1,108.835z"/>
			<path style="fill:#AF6AE3;" d="M254.63,121.19c-2.695-0.387-5.082,0.708-5.331,2.445c-0.249,1.737,1.733,3.459,4.428,3.846
				c2.695,0.387,5.082-0.708,5.331-2.445C259.307,123.3,257.325,121.577,254.63,121.19z"/>
			<path style="fill:#AF6AE3;" d="M255.912,111.761c-2.264,1.766-5.022,2.014-6.16,0.555c-1.138-1.459-0.226-4.074,2.038-5.84
				c2.264-1.766,5.022-2.014,6.16-0.555C259.088,107.381,258.176,109.995,255.912,111.761z"/>
			<path style="fill:#AF6AE3;" d="M256.613,113.088c-2.734,0.876-4.493,3.015-3.929,4.777c0.565,1.763,3.239,2.482,5.973,1.606
				c2.734-0.876,4.493-3.015,3.929-4.778C262.021,112.931,259.347,112.212,256.613,113.088z"/>
		</g>
		<g>
			<path style="fill:#AF6AE3;" d="M116.899,96.02c1.167,2.011,3.334,1.441,6.078,2.336c4.026,1.313,5.955-0.41,5.509-2.318
				c-0.446-1.908-3.085-2.299-4.031-4.117c-0.003-0.006-0.006-0.011-0.009-0.017c-0.003-0.006-0.006-0.011-0.009-0.017
				c-1.016-1.78,0.083-4.21-1.279-5.618c-1.363-1.408-3.856-0.719-4.932,3.377C117.493,92.436,115.84,93.95,116.899,96.02z"/>
			<path style="fill:#AF6AE3;" d="M118.073,101.77c0.936-1.975,2.727-3.087,4.001-2.483c1.273,0.604,1.547,2.694,0.61,4.669
				c-0.936,1.975-2.727,3.087-4.001,2.483C117.41,105.835,117.137,103.745,118.073,101.77z"/>
			
				<ellipse transform="matrix(0.1291 -0.9916 0.9916 0.1291 9.7912 189.9284)" style="fill:#AF6AE3;" cx="113.03" cy="89.39" rx="2.551" ry="3.958"/>
			<path style="fill:#AF6AE3;" d="M111.771,99.503c1.799-1.441,4.01-1.67,4.94-0.51c0.929,1.16,0.224,3.268-1.574,4.71
				c-1.799,1.441-4.01,1.67-4.94,0.51C109.267,103.053,109.972,100.944,111.771,99.503z"/>
			<path style="fill:#AF6AE3;" d="M111.194,98.446c2.186-0.732,3.575-2.468,3.104-3.877c-0.472-1.409-2.626-1.958-4.812-1.226
				c-2.186,0.732-3.575,2.467-3.104,3.877C106.854,98.628,109.008,99.177,111.194,98.446z"/>
		</g>
		<g>
			<path style="fill:#AF6AE3;" d="M244.333,245.006c2.509-1.287,1.954-3.948,3.209-7.215c1.842-4.793-0.124-7.237-2.463-6.817
				c-2.339,0.42-2.978,3.592-5.239,4.624c-0.007,0.003-0.014,0.006-0.021,0.01c-0.007,0.003-0.014,0.007-0.021,0.01
				c-2.219,1.12-5.094-0.365-6.884,1.198c-1.79,1.562-1.112,4.625,3.78,6.184C240.03,244.063,241.76,246.159,244.333,245.006z"/>
			
				<ellipse transform="matrix(0.4744 -0.8803 0.8803 0.4744 -79.4545 349.3694)" style="fill:#AF6AE3;" cx="252.838" cy="241.221" rx="3.094" ry="4.799"/>
			<path style="fill:#AF6AE3;" d="M239.105,249.834c0.478-2.607-0.498-4.971-2.179-5.278c-1.681-0.308-3.431,1.556-3.908,4.163
				c-0.477,2.607,0.498,4.97,2.179,5.278C236.878,254.306,238.627,252.442,239.105,249.834z"/>
			<path style="fill:#AF6AE3;" d="M248.23,251.435c-1.633-2.269-1.771-4.961-0.309-6.014c1.463-1.053,3.972-0.067,5.605,2.201
				c1.633,2.269,1.771,4.961,0.309,6.014C252.373,254.689,249.864,253.704,248.23,251.435z"/>
			<path style="fill:#AF6AE3;" d="M246.914,252.067c-0.749-2.693-2.764-4.484-4.501-4.001c-1.736,0.483-2.536,3.058-1.786,5.751
				c0.749,2.693,2.764,4.484,4.501,4.001C246.864,257.335,247.663,254.76,246.914,252.067z"/>
		</g>
		<g>
			<path style="fill:#AF6AE3;" d="M70.928,79.662c2.403,1.134,4.071-0.808,7.232-1.747c4.638-1.378,5.334-4.25,3.677-5.755
				c-1.657-1.505-4.393-0.161-6.462-1.257c-0.006-0.004-0.013-0.007-0.019-0.01c-0.007-0.003-0.013-0.006-0.02-0.009
				c-2.111-1.014-2.654-4.014-4.849-4.453c-2.195-0.44-4.093,1.826-2.447,6.376C69.161,75.907,68.589,78.403,70.928,79.662z"/>
			<path style="fill:#AF6AE3;" d="M75.763,84.308c-0.401-2.465,0.562-4.673,2.151-4.932c1.589-0.259,3.203,1.53,3.604,3.995
				c0.401,2.465-0.562,4.673-2.151,4.932C77.778,88.562,76.165,86.773,75.763,84.308z"/>
			<path style="fill:#AF6AE3;" d="M64.319,78.531c2.222-1.141,3.426-3.227,2.691-4.659c-0.736-1.432-3.133-1.668-5.354-0.527
				c-2.222,1.141-3.426,3.227-2.691,4.659C59.7,79.436,62.098,79.672,64.319,78.531z"/>
			<path style="fill:#AF6AE3;" d="M68.366,86.266c0.756-2.523,2.688-4.173,4.314-3.685c1.626,0.488,2.332,2.928,1.576,5.451
				c-0.756,2.523-2.688,4.173-4.314,3.685C68.315,91.229,67.609,88.789,68.366,86.266z"/>
			<path style="fill:#AF6AE3;" d="M67.137,85.646c1.581-2.107,1.761-4.641,0.403-5.66c-1.358-1.019-3.74-0.137-5.321,1.969
				c-1.581,2.107-1.761,4.641-0.403,5.66C63.174,88.634,65.556,87.753,67.137,85.646z"/>
		</g>
		<g>
			<path style="fill:#AF6AE3;" d="M179.544,165.378c0.512,2.17,2.659,2.249,4.927,3.832c3.328,2.323,5.577,1.278,5.699-0.596
				c0.121-1.874-2.191-2.967-2.554-4.898c-0.001-0.006-0.002-0.012-0.003-0.018c-0.001-0.006-0.003-0.012-0.004-0.018
				c-0.438-1.915,1.247-3.84,0.387-5.51c-0.859-1.67-3.338-1.731-5.463,1.727C181.084,162.255,179.147,163.184,179.544,165.378z"/>
			<path style="fill:#AF6AE3;" d="M179.023,170.979c1.408-1.552,3.36-2.074,4.361-1.167c1,0.908,0.67,2.901-0.737,4.453
				c-1.408,1.552-3.36,2.074-4.361,1.167C177.285,174.525,177.615,172.531,179.023,170.979z"/>
			<path style="fill:#AF6AE3;" d="M176.831,160.449c1.91,0.861,3.909,0.561,4.464-0.67c0.555-1.231-0.543-2.928-2.453-3.789
				c-1.91-0.861-3.909-0.561-4.464,0.67S174.921,159.588,176.831,160.449z"/>
			<path style="fill:#AF6AE3;" d="M173.871,167.148c2.051-0.823,4.143-0.418,4.674,0.904c0.53,1.322-0.702,3.061-2.753,3.883
				c-2.051,0.823-4.143,0.418-4.674-0.904C170.587,169.71,171.82,167.971,173.871,167.148z"/>
			<path style="fill:#AF6AE3;" d="M173.635,166.018c2.209-0.064,3.966-1.27,3.925-2.694c-0.041-1.424-1.865-2.526-4.074-2.462
				c-2.209,0.064-3.966,1.27-3.925,2.694C169.603,164.979,171.427,166.082,173.635,166.018z"/>
		</g>
	</g>
</g>
</svg>
